<svg xmlns="http://www.w3.org/2000/svg" xmlns:xlink="http://www.w3.org/1999/xlink" width="174.068" height="86.953" viewBox="0 0 174.068 86.953">
  <defs>
    <filter id="svg_angels_0" x="108.297" y="15.099" width="58.723" height="28.703" filterUnits="userSpaceOnUse">
      <feOffset dy="3" input="SourceAlpha"/>
      <feGaussianBlur stdDeviation="3" result="blur"/>
      <feFlood flood-opacity="0.161"/>
      <feComposite operator="in" in2="blur"/>
      <feComposite in="SourceGraphic"/>
    </filter>
    <filter id="svg_angels_1" x="108.297" y="29.717" width="49.064" height="28.703" filterUnits="userSpaceOnUse">
      <feOffset dy="3" input="SourceAlpha"/>
      <feGaussianBlur stdDeviation="3" result="blur-2"/>
      <feFlood flood-opacity="0.161"/>
      <feComposite operator="in" in2="blur-2"/>
      <feComposite in="SourceGraphic"/>
    </filter>
    <filter id="svg_angels_2" x="108.297" y="0" width="65.771" height="28.703" filterUnits="userSpaceOnUse">
      <feOffset dy="3" input="SourceAlpha"/>
      <feGaussianBlur stdDeviation="3" result="blur-3"/>
      <feFlood flood-opacity="0.161"/>
      <feComposite operator="in" in2="blur-3"/>
      <feComposite in="SourceGraphic"/>
    </filter>
    <filter id="svg_angels_3" x="7.048" y="15.099" width="58.723" height="28.703" filterUnits="userSpaceOnUse">
      <feOffset dy="3" input="SourceAlpha"/>
      <feGaussianBlur stdDeviation="3" result="blur-4"/>
      <feFlood flood-opacity="0.161"/>
      <feComposite operator="in" in2="blur-4"/>
      <feComposite in="SourceGraphic"/>
    </filter>
    <filter id="svg_angels_4" x="16.707" y="29.717" width="49.064" height="28.703" filterUnits="userSpaceOnUse">
      <feOffset dy="3" input="SourceAlpha"/>
      <feGaussianBlur stdDeviation="3" result="blur-5"/>
      <feFlood flood-opacity="0.161"/>
      <feComposite operator="in" in2="blur-5"/>
      <feComposite in="SourceGraphic"/>
    </filter>
    <filter id="svg_angels_5" x="0" y="0" width="65.771" height="28.703" filterUnits="userSpaceOnUse">
      <feOffset dy="3" input="SourceAlpha"/>
      <feGaussianBlur stdDeviation="3" result="blur-6"/>
      <feFlood flood-opacity="0.161"/>
      <feComposite operator="in" in2="blur-6"/>
      <feComposite in="SourceGraphic"/>
    </filter>
    <filter id="svg_angels_6" x="50.492" y="0" width="73.085" height="86.953" filterUnits="userSpaceOnUse">
      <feOffset dy="3" input="SourceAlpha"/>
      <feGaussianBlur stdDeviation="3" result="blur-7"/>
      <feFlood flood-opacity="0.161"/>
      <feComposite operator="in" in2="blur-7"/>
      <feComposite in="SourceGraphic"/>
    </filter>
  </defs>
  <g transform="translate(-799.524 -866.018)">
    <g transform="matrix(1, 0, 0, 1, 799.52, 866.02)" filter="url(#svg_angels_0)">
      <path d="M1421.211,968.142h30.02a10.7,10.7,0,0,0,10.7-10.7h-40.723Z" transform="translate(-1303.91 -936.34)" fill="#fff"/>
    </g>
    <g transform="matrix(1, 0, 0, 1, 799.52, 866.02)" filter="url(#svg_angels_1)">
      <path d="M1421.211,1050.845h20.361a10.7,10.7,0,0,0,10.7-10.7h-31.064Z" transform="translate(-1303.91 -1004.42)" fill="#fff"/>
    </g>
    <g transform="matrix(1, 0, 0, 1, 799.52, 866.02)" filter="url(#svg_angels_2)">
      <path d="M1421.211,872.018v10.7h37.068a10.7,10.7,0,0,0,10.7-10.7Z" transform="translate(-1303.91 -866.02)" fill="#fff"/>
    </g>
    <g transform="matrix(1, 0, 0, 1, 799.52, 866.02)" filter="url(#svg_angels_3)">
      <path d="M859.1,968.142h30.02v-10.7H848.4A10.7,10.7,0,0,0,859.1,968.142Z" transform="translate(-832.35 -936.34)" fill="#fff"/>
    </g>
    <g transform="matrix(1, 0, 0, 1, 799.52, 866.02)" filter="url(#svg_angels_4)">
      <path d="M913.746,1050.845h20.361v-10.7H903.043A10.7,10.7,0,0,0,913.746,1050.845Z" transform="translate(-877.34 -1004.42)" fill="#fff"/>
    </g>
    <g transform="matrix(1, 0, 0, 1, 799.52, 866.02)" filter="url(#svg_angels_5)">
      <path d="M819.227,882.721H856.3v-10.7H808.524A10.7,10.7,0,0,0,819.227,882.721Z" transform="translate(-799.52 -866.02)" fill="#fff"/>
    </g>
    <g transform="matrix(1, 0, 0, 1, 799.52, 866.02)" filter="url(#svg_angels_6)">
      <path d="M1094.179,913.5a27.552,27.552,0,0,0,18.151,25.9V926.785h4.013v13.731a27.534,27.534,0,0,0,3.465.455v-20.9l1.912-.056,2.1.056v20.889a27.622,27.622,0,0,0,3.1-.41V926.785h4.013V939.46a27.549,27.549,0,0,0,18.328-25.958V872.018h-55.085Zm21.8-17.81,5.747-11.645,5.748,11.645,12.851,1.867-9.3,9.065,2.2,12.8-11.495-6.043-11.494,6.043,2.195-12.8-9.3-9.065Z" transform="translate(-1034.69 -866.02)" fill="#fff"/>
    </g>
  </g>
</svg>
