<svg xmlns="http://www.w3.org/2000/svg" xmlns:xlink="http://www.w3.org/1999/xlink" width="91.125" height="117.515" viewBox="0 0 91.125 117.515">
  <defs>
    <filter id="svg_members_0" x="0" y="0" width="91.125" height="27.669" filterUnits="userSpaceOnUse">
      <feOffset dy="3" input="SourceAlpha"/>
      <feGaussianBlur stdDeviation="3" result="blur"/>
      <feFlood flood-opacity="0.161"/>
      <feComposite operator="in" in2="blur"/>
      <feComposite in="SourceGraphic"/>
    </filter>
    <filter id="svg_members_1" x="0" y="16.066" width="91.125" height="28.37" filterUnits="userSpaceOnUse">
      <feOffset dy="3" input="SourceAlpha"/>
      <feGaussianBlur stdDeviation="3" result="blur-2"/>
      <feFlood flood-opacity="0.161"/>
      <feComposite operator="in" in2="blur-2"/>
      <feComposite in="SourceGraphic"/>
    </filter>
    <filter id="svg_members_2" x="0" y="32.833" width="91.125" height="84.682" filterUnits="userSpaceOnUse">
      <feOffset dy="3" input="SourceAlpha"/>
      <feGaussianBlur stdDeviation="3" result="blur-3"/>
      <feFlood flood-opacity="0.161"/>
      <feComposite operator="in" in2="blur-3"/>
      <feComposite in="SourceGraphic"/>
    </filter>
  </defs>
  <g transform="translate(-979.268 -673)">
    <g transform="matrix(1, 0, 0, 1, 979.27, 673)" filter="url(#svg_members_0)">
      <path d="M0,0H73.125V9.669H0Z" transform="translate(9 6)" fill="#fff"/>
    </g>
    <g transform="matrix(1, 0, 0, 1, 979.27, 673)" filter="url(#svg_members_1)">
      <rect width="73.125" height="10.37" transform="translate(9 22.07)" fill="#fff"/>
    </g>
    <g transform="matrix(1, 0, 0, 1, 979.27, 673)" filter="url(#svg_members_2)">
      <path d="M988.268,914.035v40.292l36.562,26.39,36.562-26.39h0a40.292,40.292,0,0,0-40.292-40.292Zm47.5,44.687-10.94-5.752-10.941,5.752,2.09-12.182-8.851-8.628,12.232-1.777,5.47-11.084,5.47,11.084,12.232,1.777-8.851,8.628Z" transform="translate(-979.27 -875.2)" fill="#fff"/>
    </g>
  </g>
</svg>
