<svg xmlns="http://www.w3.org/2000/svg" xmlns:xlink="http://www.w3.org/1999/xlink" width="66.246" height="45.09" viewBox="0 0 66.246 45.09">
  <defs>
    <linearGradient id="svg_quote_0" x1="0.5" x2="0.5" y2="1" gradientUnits="objectBoundingBox">
      <stop offset="0" stop-color="#fbe62e"/>
      <stop offset="1" stop-color="#af1a3d"/>
    </linearGradient>
  </defs>
  <path d="M294.783,412.833c0-.024,0-.05,0-.074,0-.114.008-.229.008-.343s-.005-.211-.007-.317c0-.175,0-.349,0-.523h-.013c-.417-8.631-7.212-15.5-15.534-15.5-8.59,0-15.553,7.314-15.553,16.336s6.963,16.335,15.553,16.335h.123a.774.774,0,0,1,.688,1.157,32.357,32.357,0,0,1-3.137,4.486,47.686,47.686,0,0,1-6.248,6.19.342.342,0,0,0-.106.355.31.31,0,0,0,.391.217,47.652,47.652,0,0,0,8.333-3.566,33.611,33.611,0,0,0,7.76-5.793,26.468,26.468,0,0,0,5.895-9.078,24.836,24.836,0,0,0,.837-2.563,21.228,21.228,0,0,0,1.02-6.619C294.794,413.3,294.79,413.067,294.783,412.833Z" transform="translate(-263.687 -396.081)" fill="url(#svg_quote_0)"/>
  <path d="M328,412.833c0-.024,0-.05,0-.074,0-.114.008-.229.008-.343s-.006-.211-.008-.317c0-.175,0-.349,0-.523H328c-.417-8.631-7.212-15.5-15.534-15.5-8.59,0-15.554,7.314-15.554,16.336s6.964,16.335,15.554,16.335h.123a.775.775,0,0,1,.688,1.157,32.352,32.352,0,0,1-3.137,4.486,47.748,47.748,0,0,1-6.248,6.19.342.342,0,0,0-.106.355.31.31,0,0,0,.391.217,47.652,47.652,0,0,0,8.333-3.566,33.656,33.656,0,0,0,7.76-5.793,26.468,26.468,0,0,0,5.895-9.078,25.112,25.112,0,0,0,.837-2.563,21.259,21.259,0,0,0,1.02-6.619C328.015,413.3,328.011,413.067,328,412.833Z" transform="translate(-261.769 -396.081)" fill="url(#svg_quote_0)"/>
</svg>
