<svg xmlns="http://www.w3.org/2000/svg" xmlns:xlink="http://www.w3.org/1999/xlink" width="60" height="60" viewBox="0 0 60 60">
  <defs>
    <linearGradient id="svg_email_0" x1="0.5" x2="0.5" y2="1" gradientUnits="objectBoundingBox">
      <stop offset="0" stop-color="#fbe62e"/>
      <stop offset="1" stop-color="#af1a3d"/>
    </linearGradient>
    <filter id="svg_email_1" x="0" y="0" width="60" height="60" filterUnits="userSpaceOnUse">
      <feOffset dy="3" input="SourceAlpha"/>
      <feGaussianBlur stdDeviation="3" result="blur"/>
      <feFlood flood-opacity="0.161"/>
      <feComposite operator="in" in2="blur"/>
      <feComposite in="SourceGraphic"/>
    </filter>
  </defs>
  <g transform="translate(-24 -136.109)">
    <g transform="translate(33 142.109)">
      <g transform="matrix(1, 0, 0, 1, -9, -6)" filter="url(#svg_email_1)">
        <circle cx="21" cy="21" r="21" transform="translate(9 6)" fill="url(#svg_email_0)"/>
      </g>
    </g>
    <g transform="translate(42.817 155.343)">
      <path d="M163.458,369.329a1.624,1.624,0,0,1,.578-.111h19.651a1.623,1.623,0,0,1,.578.111l-8.8,8.459a2.3,2.3,0,0,1-3.2,0Zm21.648,15.034a1.7,1.7,0,0,0,.246-.877v-12.57a1.732,1.732,0,0,0-.126-.644l-8.24,7.917Zm-8.864-5.469a3.6,3.6,0,0,1-4.761,0l-8.1,6.156a1.629,1.629,0,0,0,.652.135h19.651a1.626,1.626,0,0,0,.651-.135ZM162.5,370.272a1.714,1.714,0,0,0-.126.644v12.57a1.711,1.711,0,0,0,.246.877l8.119-6.174Z" transform="translate(-162.371 -369.218)" fill="#fff"/>
    </g>
  </g>
</svg>
