<svg xmlns="http://www.w3.org/2000/svg" xmlns:xlink="http://www.w3.org/1999/xlink" width="60.391" height="60.391" viewBox="0 0 60.391 60.391"><defs><linearGradient id="a" x1="0.5" x2="0.5" y2="1" gradientUnits="objectBoundingBox"><stop offset="0" stop-color="#fbe62e"/><stop offset="1" stop-color="#af1a3d"/></linearGradient><filter id="b" x="0" y="0" width="60.391" height="60.391" filterUnits="userSpaceOnUse"><feOffset dy="3" input="SourceAlpha"/><feGaussianBlur stdDeviation="3" result="c"/><feFlood flood-opacity="0.161"/><feComposite operator="in" in2="c"/><feComposite in="SourceGraphic"/></filter></defs><g transform="translate(-62 -724.109)"><g transform="translate(-57 27)"><g transform="matrix(1, 0, 0, 1, 119, 697.11)" filter="url(#b)"><circle cx="21.195" cy="21.195" r="21.195" transform="translate(9 6)" fill="url(#a)"/></g></g><g transform="translate(-81.352 374.323)"><path d="M163.458,369.329a1.624,1.624,0,0,1,.578-.111h19.651a1.623,1.623,0,0,1,.578.111l-8.8,8.459a2.3,2.3,0,0,1-3.2,0Zm21.648,15.034a1.7,1.7,0,0,0,.246-.877v-12.57a1.732,1.732,0,0,0-.126-.644l-8.24,7.917Zm-8.864-5.469a3.6,3.6,0,0,1-4.761,0l-8.1,6.156a1.629,1.629,0,0,0,.652.135h19.651a1.626,1.626,0,0,0,.651-.135ZM162.5,370.272a1.714,1.714,0,0,0-.126.644v12.57a1.711,1.711,0,0,0,.246.877l8.119-6.174Z" transform="translate(0 0)" fill="#fff"/></g></g></svg>