<svg xmlns="http://www.w3.org/2000/svg" xmlns:xlink="http://www.w3.org/1999/xlink" width="60" height="60" viewBox="0 0 60 60">
  <defs>
    <linearGradient id="svg_facebook_0" x1="0.5" x2="0.5" y2="1" gradientUnits="objectBoundingBox">
      <stop offset="0" stop-color="#fbe62e"/>
      <stop offset="1" stop-color="#af1a3d"/>
    </linearGradient>
    <filter id="svg_facebook_1" x="0" y="0" width="60" height="60" filterUnits="userSpaceOnUse">
      <feOffset dy="3" input="SourceAlpha"/>
      <feGaussianBlur stdDeviation="3" result="blur"/>
      <feFlood flood-opacity="0.161"/>
      <feComposite operator="in" in2="blur"/>
      <feComposite in="SourceGraphic"/>
    </filter>
    <filter id="svg_facebook_2" x="14.874" y="8.404" width="30.229" height="44.104" filterUnits="userSpaceOnUse">
      <feOffset dy="3" input="SourceAlpha"/>
      <feGaussianBlur stdDeviation="3" result="blur-2"/>
      <feFlood flood-opacity="0.161"/>
      <feComposite operator="in" in2="blur-2"/>
      <feComposite in="SourceGraphic"/>
    </filter>
  </defs>
  <g transform="translate(9 6)">
    <g transform="matrix(1, 0, 0, 1, -9, -6)" filter="url(#svg_facebook_1)">
      <circle cx="21" cy="21" r="21" transform="translate(9 6)" fill="url(#svg_facebook_0)"/>
    </g>
    <g transform="matrix(1, 0, 0, 1, -9, -6)" filter="url(#svg_facebook_2)">
      <path d="M1425.434,102.394h5.335V89.231h3.722l.4-4.407h-4.119v-2.51c0-1.039.212-1.45,1.232-1.45h2.887V76.29h-3.694c-3.97,0-5.76,1.722-5.76,5.02v3.514h-2.775v4.462h2.775Z" transform="translate(-1398.79 -61.89)" fill="#fff"/>
    </g>
  </g>
</svg>
