<svg xmlns="http://www.w3.org/2000/svg" xmlns:xlink="http://www.w3.org/1999/xlink" width="60.391" height="60.391" viewBox="0 0 60.391 60.391"><defs><linearGradient id="a" x1="0.5" x2="0.5" y2="1" gradientUnits="objectBoundingBox"><stop offset="0" stop-color="#fbe62e"/><stop offset="1" stop-color="#af1a3d"/></linearGradient><filter id="b" x="0" y="0" width="60.391" height="60.391" filterUnits="userSpaceOnUse"><feOffset dy="3" input="SourceAlpha"/><feGaussianBlur stdDeviation="3" result="c"/><feFlood flood-opacity="0.161"/><feComposite operator="in" in2="c"/><feComposite in="SourceGraphic"/></filter><filter id="d" x="15.069" y="8.404" width="30.229" height="44.494" filterUnits="userSpaceOnUse"><feOffset dy="3" input="SourceAlpha"/><feGaussianBlur stdDeviation="3" result="e"/><feFlood flood-opacity="0.161"/><feComposite operator="in" in2="e"/><feComposite in="SourceGraphic"/></filter></defs><g transform="translate(-119 -697.109)"><g transform="matrix(1, 0, 0, 1, 119, 697.11)" filter="url(#b)"><circle cx="21.195" cy="21.195" r="21.195" transform="translate(9 6)" fill="url(#a)"/></g><g transform="matrix(1, 0, 0, 1, 119, 697.11)" filter="url(#d)"><path d="M1425.434,102.784h5.335V89.425h3.722l.4-4.473h-4.119V82.4c0-1.055.212-1.472,1.232-1.472h2.887V76.29h-3.694c-3.97,0-5.76,1.748-5.76,5.1v3.566h-2.775v4.529h2.775Z" transform="translate(-1398.59 -61.89)" fill="#fff"/></g></g></svg>