<svg xmlns="http://www.w3.org/2000/svg" xmlns:xlink="http://www.w3.org/1999/xlink" width="60" height="60" viewBox="0 0 60 60">
  <defs>
    <linearGradient id="svg_github_0" x1="0.5" x2="0.5" y2="1" gradientUnits="objectBoundingBox">
      <stop offset="0" stop-color="#fbe62e"/>
      <stop offset="1" stop-color="#af1a3d"/>
    </linearGradient>
    <filter id="svg_github_1" x="0" y="0" width="60" height="60" filterUnits="userSpaceOnUse">
      <feOffset dy="3" input="SourceAlpha"/>
      <feGaussianBlur stdDeviation="3" result="blur"/>
      <feFlood flood-opacity="0.161"/>
      <feComposite operator="in" in2="blur"/>
      <feComposite in="SourceGraphic"/>
    </filter>
  </defs>
  <g transform="translate(9 6)">
    <g transform="matrix(1, 0, 0, 1, -9, -6)" filter="url(#svg_github_1)">
      <circle cx="21" cy="21" r="21" transform="translate(9 6)" fill="url(#svg_github_0)"/>
    </g>
    <g transform="translate(-143 -151)">
      <path d="M177.713,166.75a14.2,14.2,0,0,0-5.188-5.188,14.345,14.345,0,0,0-14.312,0,14.2,14.2,0,0,0-5.188,5.188,14.276,14.276,0,0,0,7.833,20.688.829.829,0,0,0,.742-.129.727.727,0,0,0,.242-.557q0-.055-.009-1t-.01-1.652l-.426.074a5.391,5.391,0,0,1-1.03.065,7.8,7.8,0,0,1-1.29-.13,2.874,2.874,0,0,1-1.244-.556,2.35,2.35,0,0,1-.817-1.141l-.186-.427a4.635,4.635,0,0,0-.584-.947,2.4,2.4,0,0,0-.724-.664,1.853,1.853,0,0,1-.189-.117l-.024-.017a1.386,1.386,0,0,1-.241-.224.983.983,0,0,1-.167-.259c-.037-.087-.007-.158.092-.214a.678.678,0,0,1,.249-.069,1.667,1.667,0,0,1,.449.009l.212.032a2.7,2.7,0,0,1,.919.445,3,3,0,0,1,.9.965,3.278,3.278,0,0,0,1.03,1.16,2.188,2.188,0,0,0,1.216.4,5.328,5.328,0,0,0,1.058-.092,3.719,3.719,0,0,0,.835-.278,3.01,3.01,0,0,1,.909-1.912,12.66,12.66,0,0,1-1.9-.335,7.5,7.5,0,0,1-1.744-.724,5,5,0,0,1-1.5-1.243,5.984,5.984,0,0,1-.973-1.949,9.272,9.272,0,0,1-.381-2.784,5.416,5.416,0,0,1,1.466-3.825,4.982,4.982,0,0,1,.13-3.786,2.6,2.6,0,0,1,1.6.25,11.255,11.255,0,0,1,1.55.714c.328.2.591.366.789.5a13.4,13.4,0,0,1,7.129,0l.705-.446a9.978,9.978,0,0,1,1.708-.817,2.437,2.437,0,0,1,1.5-.2A4.944,4.944,0,0,1,173,169.34a5.412,5.412,0,0,1,1.466,3.824,9.362,9.362,0,0,1-.381,2.794,5.721,5.721,0,0,1-.983,1.949,5.189,5.189,0,0,1-1.5,1.235,7.559,7.559,0,0,1-1.744.723,12.66,12.66,0,0,1-1.9.335,3.307,3.307,0,0,1,.965,2.635v3.917a.739.739,0,0,0,.232.556.805.805,0,0,0,.733.13,14.288,14.288,0,0,0,7.833-20.688Z" transform="translate(-1.439 -1.44)" fill="#fff"/>
      <path d="M159.691,186.087a1.552,1.552,0,0,1-.284-.029l-.008,0a14.349,14.349,0,0,1-7.867-20.777,14.323,14.323,0,0,1,5.21-5.21,14.406,14.406,0,0,1,14.374,0,14.324,14.324,0,0,1,5.211,5.21h0a14.34,14.34,0,0,1-7.867,20.777l-.008,0a.864.864,0,0,1-.787-.146.8.8,0,0,1-.251-.6v-3.917a3.265,3.265,0,0,0-.943-2.589l-.107-.092.14-.015a12.655,12.655,0,0,0,1.893-.333,7.529,7.529,0,0,0,1.73-.717,5.158,5.158,0,0,0,1.486-1.22,5.69,5.69,0,0,0,.972-1.928,9.344,9.344,0,0,0,.378-2.775,5.376,5.376,0,0,0-1.45-3.782l-.027-.029.015-.036a4.9,4.9,0,0,0-.137-3.714,2.467,2.467,0,0,0-1.436.211,9.967,9.967,0,0,0-1.7.811l-.728.46-.026-.007a13.34,13.34,0,0,0-7.1,0l-.028.008-.024-.016c-.208-.143-.472-.311-.786-.5a11.22,11.22,0,0,0-1.54-.71,2.641,2.641,0,0,0-1.528-.257,4.933,4.933,0,0,0-.12,3.712l.015.036-.027.029a5.381,5.381,0,0,0-1.45,3.783,9.257,9.257,0,0,0,.378,2.766,5.944,5.944,0,0,0,.963,1.929,4.96,4.96,0,0,0,1.477,1.227,7.472,7.472,0,0,0,1.73.719,12.653,12.653,0,0,0,1.893.333l.137.015-.1.092a2.963,2.963,0,0,0-.889,1.875l0,.033-.03.014a3.8,3.8,0,0,1-.849.283,5.409,5.409,0,0,1-1.071.094,2.259,2.259,0,0,1-1.25-.409,3.356,3.356,0,0,1-1.05-1.181,2.951,2.951,0,0,0-.881-.945,2.659,2.659,0,0,0-.9-.436l-.209-.031a1.61,1.61,0,0,0-.433-.009.625.625,0,0,0-.226.061c-.093.052-.083.1-.066.137a.924.924,0,0,0,.157.243,1.313,1.313,0,0,0,.231.214l.024.017a1.776,1.776,0,0,0,.183.113,2.468,2.468,0,0,1,.744.681,4.657,4.657,0,0,1,.592.96l.188.432a2.3,2.3,0,0,0,.8,1.112,2.827,2.827,0,0,0,1.218.545,7.752,7.752,0,0,0,1.28.129,5.365,5.365,0,0,0,1.018-.064l.5-.087v.073c0,.467,0,1.023.01,1.651q0,.5.007.748,0,.229,0,.255a.789.789,0,0,1-.261.6A.725.725,0,0,1,159.691,186.087Zm-.257-.148a.773.773,0,0,0,.685-.115.662.662,0,0,0,.222-.512q0-.026,0-.254,0-.251-.007-.748c-.006-.6-.01-1.127-.01-1.579l-.354.062a5.487,5.487,0,0,1-1.042.066,7.881,7.881,0,0,1-1.3-.131,2.948,2.948,0,0,1-1.27-.568,2.422,2.422,0,0,1-.837-1.168l-.185-.425a4.6,4.6,0,0,0-.577-.934,2.349,2.349,0,0,0-.7-.647,1.909,1.909,0,0,1-.2-.12l-.024-.017a1.458,1.458,0,0,1-.252-.234,1.047,1.047,0,0,1-.177-.275.215.215,0,0,1,.119-.291.732.732,0,0,1,.272-.076,1.739,1.739,0,0,1,.466.009l.212.032a2.77,2.77,0,0,1,.944.455,3.073,3.073,0,0,1,.918.985,3.238,3.238,0,0,0,1.011,1.14,2.139,2.139,0,0,0,1.182.388,5.283,5.283,0,0,0,1.046-.091,3.69,3.69,0,0,0,.791-.26,3.13,3.13,0,0,1,.827-1.825,12.544,12.544,0,0,1-1.78-.322,7.6,7.6,0,0,1-1.759-.73,5.083,5.083,0,0,1-1.513-1.258,6.065,6.065,0,0,1-.984-1.969,9.378,9.378,0,0,1-.383-2.8,5.5,5.5,0,0,1,1.456-3.838,5.079,5.079,0,0,1,.144-3.8l.011-.027.028-.009a2.626,2.626,0,0,1,1.637.252,11.322,11.322,0,0,1,1.559.719c.3.183.562.347.768.488a13.465,13.465,0,0,1,7.108,0l.682-.432a10.086,10.086,0,0,1,1.719-.822,2.5,2.5,0,0,1,1.544-.2l.028.009.011.027a5.042,5.042,0,0,1,.162,3.8,5.5,5.5,0,0,1,1.456,3.837,9.466,9.466,0,0,1-.383,2.812,5.809,5.809,0,0,1-.995,1.97,5.279,5.279,0,0,1-1.521,1.249,7.656,7.656,0,0,1-1.759.729,12.541,12.541,0,0,1-1.777.322,3.47,3.47,0,0,1,.885,2.589v3.917a.681.681,0,0,0,.213.512.752.752,0,0,0,.675.115,14.227,14.227,0,0,0,7.8-20.6h0a14.2,14.2,0,0,0-5.166-5.166,14.284,14.284,0,0,0-14.25,0,14.2,14.2,0,0,0-5.166,5.166,14.214,14.214,0,0,0,7.8,20.6Z" transform="translate(0 0)" fill="#fff"/>
    </g>
  </g>
</svg>
