<svg xmlns="http://www.w3.org/2000/svg" xmlns:xlink="http://www.w3.org/1999/xlink" width="60" height="60" viewBox="0 0 60 60">
  <defs>
    <linearGradient id="svg_instagram_0" x1="0.5" x2="0.5" y2="1" gradientUnits="objectBoundingBox">
      <stop offset="0" stop-color="#fbe62e"/>
      <stop offset="1" stop-color="#af1a3d"/>
    </linearGradient>
    <filter id="svg_instagram_1" x="0" y="0" width="60" height="60" filterUnits="userSpaceOnUse">
      <feOffset dy="3" input="SourceAlpha"/>
      <feGaussianBlur stdDeviation="3" result="blur"/>
      <feFlood flood-opacity="0.161"/>
      <feComposite operator="in" in2="blur"/>
      <feComposite in="SourceGraphic"/>
    </filter>
    <filter id="svg_instagram_2" x="8.308" y="8.092" width="43.28" height="43.982" filterUnits="userSpaceOnUse">
      <feOffset dy="3" input="SourceAlpha"/>
      <feGaussianBlur stdDeviation="3" result="blur-2"/>
      <feFlood flood-opacity="0.161"/>
      <feComposite operator="in" in2="blur-2"/>
      <feComposite in="SourceGraphic"/>
    </filter>
    <filter id="svg_instagram_3" x="13.919" y="13.914" width="32.137" height="32.136" filterUnits="userSpaceOnUse">
      <feOffset dy="3" input="SourceAlpha"/>
      <feGaussianBlur stdDeviation="3" result="blur-3"/>
      <feFlood flood-opacity="0.161"/>
      <feComposite operator="in" in2="blur-3"/>
      <feComposite in="SourceGraphic"/>
    </filter>
    <filter id="svg_instagram_4" x="26.424" y="12.201" width="21.347" height="21.347" filterUnits="userSpaceOnUse">
      <feOffset dy="3" input="SourceAlpha"/>
      <feGaussianBlur stdDeviation="3" result="blur-4"/>
      <feFlood flood-opacity="0.161"/>
      <feComposite operator="in" in2="blur-4"/>
      <feComposite in="SourceGraphic"/>
    </filter>
  </defs>
  <g transform="translate(-119 -665.109)">
    <g transform="matrix(1, 0, 0, 1, 119, 665.11)" filter="url(#svg_instagram_1)">
      <ellipse cx="21" cy="21" rx="21" ry="21" transform="translate(9 6)" fill="url(#svg_instagram_0)"/>
    </g>
    <g transform="matrix(1, 0, 0, 1, 119, 665.11)" filter="url(#svg_instagram_2)">
      <path d="M1581.442,101.39h-10.571a7.378,7.378,0,0,1-7.355-7.357V82.765a7.377,7.377,0,0,1,7.355-7.357h10.571a7.378,7.378,0,0,1,7.355,7.357V94.033a7.378,7.378,0,0,1-7.355,7.357m0-1.944a5.432,5.432,0,0,0,5.411-5.413V82.765a5.432,5.432,0,0,0-5.411-5.413h-10.571a5.432,5.432,0,0,0-5.411,5.413V94.033a5.432,5.432,0,0,0,5.411,5.413Z" transform="translate(-1546.21 -61.32)" fill="#fff"/>
    </g>
    <g transform="matrix(1, 0, 0, 1, 119, 665.11)" filter="url(#svg_instagram_3)">
      <path d="M1594.091,99.507a7.068,7.068,0,1,1-7.069-7.068,7.068,7.068,0,0,1,7.069,7.068m-7.1-4.623a4.629,4.629,0,1,0,4.628,4.628,4.628,4.628,0,0,0-4.628-4.628" transform="translate(-1557.03 -72.53)" fill="#fff"/>
    </g>
    <g transform="matrix(1, 0, 0, 1, 119, 665.11)" filter="url(#svg_instagram_4)">
      <path d="M1618.9,89.063a1.674,1.674,0,1,1-1.675-1.674,1.674,1.674,0,0,1,1.675,1.674" transform="translate(-1580.13 -69.19)" fill="#fff"/>
    </g>
  </g>
</svg>
