<svg xmlns="http://www.w3.org/2000/svg" xmlns:xlink="http://www.w3.org/1999/xlink" width="60.391" height="60.391" viewBox="0 0 60.391 60.391"><defs><linearGradient id="a" x1="0.5" x2="0.5" y2="1" gradientUnits="objectBoundingBox"><stop offset="0" stop-color="#fbe62e"/><stop offset="1" stop-color="#af1a3d"/></linearGradient><filter id="b" x="0" y="0" width="60.391" height="60.391" filterUnits="userSpaceOnUse"><feOffset dy="3" input="SourceAlpha"/><feGaussianBlur stdDeviation="3" result="c"/><feFlood flood-opacity="0.161"/><feComposite operator="in" in2="c"/><feComposite in="SourceGraphic"/></filter><filter id="d" x="8.308" y="8.092" width="43.671" height="44.373" filterUnits="userSpaceOnUse"><feOffset dy="3" input="SourceAlpha"/><feGaussianBlur stdDeviation="3" result="e"/><feFlood flood-opacity="0.161"/><feComposite operator="in" in2="e"/><feComposite in="SourceGraphic"/></filter><filter id="f" x="14.114" y="14.109" width="32.137" height="32.136" filterUnits="userSpaceOnUse"><feOffset dy="3" input="SourceAlpha"/><feGaussianBlur stdDeviation="3" result="g"/><feFlood flood-opacity="0.161"/><feComposite operator="in" in2="g"/><feComposite in="SourceGraphic"/></filter><filter id="h" x="26.691" y="12.325" width="21.347" height="21.347" filterUnits="userSpaceOnUse"><feOffset dy="3" input="SourceAlpha"/><feGaussianBlur stdDeviation="3" result="i"/><feFlood flood-opacity="0.161"/><feComposite operator="in" in2="i"/><feComposite in="SourceGraphic"/></filter></defs><g transform="translate(-119 -665.109)"><g transform="matrix(1, 0, 0, 1, 119, 665.11)" filter="url(#b)"><ellipse cx="21.195" cy="21.195" rx="21.195" ry="21.195" transform="translate(9 6)" fill="url(#a)"/></g><g transform="matrix(1, 0, 0, 1, 119, 665.11)" filter="url(#d)"><path d="M1581.719,101.781h-10.734a7.49,7.49,0,0,1-7.468-7.468V82.875a7.49,7.49,0,0,1,7.468-7.467h10.734a7.49,7.49,0,0,1,7.469,7.467V94.313a7.491,7.491,0,0,1-7.469,7.468m0-1.974a5.515,5.515,0,0,0,5.495-5.494V82.875a5.515,5.515,0,0,0-5.495-5.494h-10.734a5.515,5.515,0,0,0-5.494,5.494V94.313a5.515,5.515,0,0,0,5.494,5.494Z" transform="translate(-1546.21 -61.32)" fill="#fff"/></g><g transform="matrix(1, 0, 0, 1, 119, 665.11)" filter="url(#f)"><path d="M1594.091,99.507a7.068,7.068,0,1,1-7.069-7.068,7.068,7.068,0,0,1,7.069,7.068m-7.1-4.623a4.629,4.629,0,1,0,4.628,4.628,4.628,4.628,0,0,0-4.628-4.628" transform="translate(-1556.84 -72.33)" fill="#fff"/></g><g transform="matrix(1, 0, 0, 1, 119, 665.11)" filter="url(#h)"><path d="M1618.9,89.063a1.674,1.674,0,1,1-1.675-1.674,1.674,1.674,0,0,1,1.675,1.674" transform="translate(-1579.87 -69.06)" fill="#fff"/></g></g></svg>