<svg xmlns="http://www.w3.org/2000/svg" xmlns:xlink="http://www.w3.org/1999/xlink" width="60" height="60" viewBox="0 0 60 60">
  <defs>
    <linearGradient id="svg_link_0" x1="0.5" x2="0.5" y2="1" gradientUnits="objectBoundingBox">
      <stop offset="0" stop-color="#fbe62e"/>
      <stop offset="1" stop-color="#af1a3d"/>
    </linearGradient>
    <filter id="svg_link_1" x="0" y="0" width="60" height="60" filterUnits="userSpaceOnUse">
      <feOffset dy="3" input="SourceAlpha"/>
      <feGaussianBlur stdDeviation="3" result="blur"/>
      <feFlood flood-opacity="0.161"/>
      <feComposite operator="in" in2="blur"/>
      <feComposite in="SourceGraphic"/>
    </filter>
  </defs>
  <g transform="translate(-8 -175.5)">
    <g transform="matrix(1, 0, 0, 1, 8, 175.5)" filter="url(#svg_link_1)">
      <circle cx="21" cy="21" r="21" transform="translate(9 6)" fill="url(#svg_link_0)"/>
    </g>
    <g transform="translate(-439.38 -273.022)">
      <g transform="translate(473.716 463.618)">
        <path d="M841.877,941.635a3.641,3.641,0,0,1-1.934-1.012h0a3.638,3.638,0,0,1-.965-1.713.3.3,0,0,0-.294-.23,3.2,3.2,0,0,0-1.376.316.307.307,0,0,0-.165.348,5.554,5.554,0,0,0,4.311,4.129A3.2,3.2,0,0,0,841.877,941.635Z" transform="translate(-837.135 -928.516)" fill="#fff"/>
        <path d="M867.48,469.16a5.542,5.542,0,0,0-9.46-3.918l-3.977,3.977a5.54,5.54,0,0,0-1.127,1.619.151.151,0,0,0,.164.211,6.1,6.1,0,0,1,1.725-.053.3.3,0,0,0,.273-.114,3.667,3.667,0,0,1,.295-.333l3.954-3.954a3.66,3.66,0,1,1,5.2,5.154l-3.977,3.977a3.655,3.655,0,0,1-3.242,1.012,3.2,3.2,0,0,1-.423,1.838,5.6,5.6,0,0,0,1.076.1,5.509,5.509,0,0,0,3.919-1.623l3.977-3.977A5.505,5.505,0,0,0,867.48,469.16Z" transform="translate(-852.566 -463.618)" fill="#fff"/>
      </g>
      <g transform="translate(465.771 471.418)">
        <path d="M940.84,834.84a3.639,3.639,0,0,1,1.934,1.012h0a3.637,3.637,0,0,1,.965,1.713.3.3,0,0,0,.294.23,3.2,3.2,0,0,0,1.376-.317.307.307,0,0,0,.165-.348A5.554,5.554,0,0,0,941.263,833,3.2,3.2,0,0,0,940.84,834.84Z" transform="translate(-930.667 -832.899)" fill="#fff"/>
        <path d="M480.334,836.031a.151.151,0,0,0-.164-.211,6.1,6.1,0,0,1-1.725.053.3.3,0,0,0-.273.114,3.662,3.662,0,0,1-.295.333l-3.954,3.954a3.66,3.66,0,1,1-5.2-5.154l3.977-3.977a3.655,3.655,0,0,1,3.242-1.012,3.2,3.2,0,0,1,.423-1.838,5.6,5.6,0,0,0-1.076-.1,5.509,5.509,0,0,0-3.919,1.623l-3.977,3.977a5.542,5.542,0,1,0,7.837,7.837l3.977-3.977A5.54,5.54,0,0,0,480.334,836.031Z" transform="translate(-465.771 -828.19)" fill="#fff"/>
      </g>
    </g>
  </g>
</svg>
