<svg xmlns="http://www.w3.org/2000/svg" xmlns:xlink="http://www.w3.org/1999/xlink" width="60" height="60" viewBox="0 0 60 60">
  <defs>
    <linearGradient id="svg_linkedin_0" x1="0.5" x2="0.5" y2="1" gradientUnits="objectBoundingBox">
      <stop offset="0" stop-color="#fbe62e"/>
      <stop offset="1" stop-color="#af1a3d"/>
    </linearGradient>
    <filter id="svg_linkedin_1" x="0" y="0" width="60" height="60" filterUnits="userSpaceOnUse">
      <feOffset dy="3" input="SourceAlpha"/>
      <feGaussianBlur stdDeviation="3" result="blur"/>
      <feFlood flood-opacity="0.161"/>
      <feComposite operator="in" in2="blur"/>
      <feComposite in="SourceGraphic"/>
    </filter>
  </defs>
  <g transform="translate(9 6)">
    <g transform="matrix(1, 0, 0, 1, -9, -6)" filter="url(#svg_linkedin_1)">
      <circle cx="21" cy="21" r="21" transform="translate(9 6)" fill="url(#svg_linkedin_0)"/>
    </g>
    <g transform="translate(-1247.298 -53.308)">
      <g transform="translate(1256.453 62.665)">
        <path d="M1278.742,63.172a1.254,1.254,0,0,1,1.275,1.228V85a1.255,1.255,0,0,1-1.275,1.23H1258.23a1.252,1.252,0,0,1-1.27-1.23V64.4a1.251,1.251,0,0,1,1.27-1.228h20.512m0-.507H1258.23a1.757,1.757,0,0,0-1.777,1.734V85a1.758,1.758,0,0,0,1.777,1.736h20.512A1.761,1.761,0,0,0,1280.523,85V64.4a1.76,1.76,0,0,0-1.782-1.734Z" transform="translate(-1256.453 -62.665)" fill="#fff"/>
      </g>
      <path d="M1302.688,114.739h3.57v11.487h-3.57Zm1.786-5.71a2.07,2.07,0,1,1-2.07,2.069,2.07,2.07,0,0,1,2.07-2.069" transform="translate(-42.666 -43.05)" fill="#fff"/>
      <path d="M1387.665,185.208h3.424v1.57h.048a3.751,3.751,0,0,1,3.378-1.855c3.615,0,4.283,2.379,4.283,5.472v6.3h-3.568v-5.586c0-1.332-.025-3.046-1.855-3.046-1.858,0-2.143,1.451-2.143,2.949v5.682h-3.567Z" transform="translate(-121.834 -113.519)" fill="#fff"/>
    </g>
  </g>
</svg>
