<svg xmlns="http://www.w3.org/2000/svg" xmlns:xlink="http://www.w3.org/1999/xlink" width="60" height="60" viewBox="0 0 60 60">
  <defs>
    <linearGradient id="svg_phone_0" x1="0.5" x2="0.5" y2="1" gradientUnits="objectBoundingBox">
      <stop offset="0" stop-color="#fbe62e"/>
      <stop offset="1" stop-color="#af1a3d"/>
    </linearGradient>
    <filter id="svg_phone_1" x="0" y="0" width="60" height="60" filterUnits="userSpaceOnUse">
      <feOffset dy="3" input="SourceAlpha"/>
      <feGaussianBlur stdDeviation="3" result="blur"/>
      <feFlood flood-opacity="0.161"/>
      <feComposite operator="in" in2="blur"/>
      <feComposite in="SourceGraphic"/>
    </filter>
  </defs>
  <g transform="translate(-12 -156.109)">
    <g transform="matrix(1, 0, 0, 1, 12, 156.11)" filter="url(#svg_phone_1)">
      <ellipse cx="21" cy="21" rx="21" ry="21" transform="translate(9 6)" fill="url(#svg_phone_0)"/>
    </g>
    <g transform="translate(32.686 170.694)">
      <path d="M2125.877,2644.106l-2.1-2.42a1.617,1.617,0,0,0-1.675-.491l-3.022.885a26.227,26.227,0,0,1-3.3-3.646l-.016-.018a26.226,26.226,0,0,1-2.589-4.182l1.688-2.658a1.617,1.617,0,0,0-.008-1.745l-1.743-2.691a1.619,1.619,0,0,0-1.7-.7,5.344,5.344,0,0,0-3.371,1.9c-.7,1.1-1.875,5.187,3.61,12.73l0,0,.153.2q.14.19.286.384l.005,0c5.728,7.36,9.98,7.367,11.232,7a5.346,5.346,0,0,0,2.758-2.713A1.619,1.619,0,0,0,2125.877,2644.106Z" transform="translate(-2107.424 -2624.473)" fill="#fff"/>
      <path d="M2573.773,2562.693a10.54,10.54,0,0,1,9.587,11.412" transform="translate(-2559.655 -2562.693)" fill="none"/>
      <path d="M2546.262,2667.563a8,8,0,0,1,7.281,8.666" transform="translate(-2532.977 -2664.388)" fill="none"/>
      <path d="M2514.753,2770.475a6.078,6.078,0,0,1,5.167,6.348" transform="translate(-2502.422 -2764.185)" fill="none"/>
    </g>
  </g>
</svg>
