<svg xmlns="http://www.w3.org/2000/svg" xmlns:xlink="http://www.w3.org/1999/xlink" width="60.391" height="60.391" viewBox="0 0 60.391 60.391"><defs><linearGradient id="a" x1="0.5" x2="0.5" y2="1" gradientUnits="objectBoundingBox"><stop offset="0" stop-color="#fbe62e"/><stop offset="1" stop-color="#af1a3d"/></linearGradient><filter id="b" x="0" y="0" width="60.391" height="60.391" filterUnits="userSpaceOnUse"><feOffset dy="3" input="SourceAlpha"/><feGaussianBlur stdDeviation="3" result="c"/><feFlood flood-opacity="0.161"/><feComposite operator="in" in2="c"/><feComposite in="SourceGraphic"/></filter></defs><g transform="translate(-129 -724.109)"><g transform="matrix(1, 0, 0, 1, 129, 724.11)" filter="url(#b)"><ellipse cx="21.195" cy="21.195" rx="21.195" ry="21.195" transform="translate(9 6)" fill="url(#a)"/></g><g transform="translate(340.512 357.191)"><path d="M2125.877,2644.106l-2.1-2.42a1.617,1.617,0,0,0-1.675-.491l-3.022.885a26.227,26.227,0,0,1-3.3-3.646l-.016-.018a26.226,26.226,0,0,1-2.589-4.182l1.688-2.658a1.617,1.617,0,0,0-.008-1.745l-1.743-2.691a1.619,1.619,0,0,0-1.7-.7,5.344,5.344,0,0,0-3.371,1.9c-.7,1.1-1.875,5.187,3.61,12.73l0,0,.153.2q.14.19.286.384l.005,0c5.728,7.36,9.98,7.367,11.232,7a5.346,5.346,0,0,0,2.758-2.713A1.619,1.619,0,0,0,2125.877,2644.106Z" transform="translate(-2298 -2242.78)" fill="#fff"/><path d="M2573.773,2562.693a10.54,10.54,0,0,1,9.587,11.412" transform="translate(-2750.231 -2181)" fill="none"/><path d="M2546.262,2667.563a8,8,0,0,1,7.281,8.666" transform="translate(-2723.553 -2282.695)" fill="none"/><path d="M2514.753,2770.475a6.078,6.078,0,0,1,5.167,6.348" transform="translate(-2692.998 -2382.492)" fill="none"/></g></g></svg>