<svg xmlns="http://www.w3.org/2000/svg" xmlns:xlink="http://www.w3.org/1999/xlink" width="60" height="60" viewBox="0 0 60 60"><defs><linearGradient id="a" x1="0.5" x2="0.5" y2="1" gradientUnits="objectBoundingBox"><stop offset="0" stop-color="#fbe62e"/><stop offset="1" stop-color="#af1a3d"/></linearGradient><filter id="b" x="0" y="0" width="60" height="60" filterUnits="userSpaceOnUse"><feOffset dy="3" input="SourceAlpha"/><feGaussianBlur stdDeviation="3" result="c"/><feFlood flood-opacity="0.161"/><feComposite operator="in" in2="c"/><feComposite in="SourceGraphic"/></filter></defs><g transform="translate(-254 -602.5)"><g transform="matrix(1, 0, 0, 1, 254, 602.5)" filter="url(#b)"><circle cx="21" cy="21" r="21" transform="translate(9 6)" fill="url(#a)"/></g><g transform="translate(273.276 615.181)"><g transform="translate(0 0)"><g transform="translate(3.361)"><path d="M2089.834,254.727a2.211,2.211,0,0,0,1.618-.94v.831h1.4v-7.526h-1.4V252.8c-.171.214-.55.564-.822.564-.3,0-.373-.2-.373-.506v-5.771h-1.4v6.291C2088.857,254.126,2089.084,254.727,2089.834,254.727Z" transform="translate(-2078.395 -244.415)" fill="#fff"/><path d="M2073.857,252.626a1.809,1.809,0,0,0,2.051,2.017,1.915,1.915,0,0,0,2.01-2.017v-3.688a1.964,1.964,0,0,0-2.01-2.022,1.926,1.926,0,0,0-2.051,2.022Zm1.44-3.564c0-.412.19-.718.583-.718.429,0,.613.3.613.718v3.5c0,.41-.208.713-.585.713a.635.635,0,0,1-.611-.713Z" transform="translate(-2068.645 -244.3)" fill="#fff"/><path d="M2060.838,249.647h1.576v-4.139l1.834-6.064h-1.6l-1.01,4.078-1.087-4.078h-1.586l1.874,6.064Z" transform="translate(-2058.964 -239.444)" fill="#fff"/></g><g transform="translate(0 11.915)"><path d="M2069.062,273.488h-16.493a3.209,3.209,0,0,0-3.208,3.21V284.8a3.208,3.208,0,0,0,3.208,3.208h16.493a3.208,3.208,0,0,0,3.208-3.208V276.7A3.208,3.208,0,0,0,2069.062,273.488Zm-14.3,12.122h-1.5V277.3h-1.553v-1.411h4.607V277.3h-1.553Zm5.339,0h-1.333v-.791a2.952,2.952,0,0,1-.767.666c-.718.411-1.7.4-1.7-1.052v-5.99h1.333v5.493c0,.289.071.483.355.483.259,0,.621-.333.783-.537v-5.44h1.333Zm5.13-1.485c0,.887-.332,1.575-1.219,1.575a1.522,1.522,0,0,1-1.265-.641v.551h-1.346v-9.717h1.346v3.129a1.593,1.593,0,0,1,1.184-.67c.976,0,1.3.825,1.3,1.8Zm4.926-1.931h-2.549v1.352c0,.538.045,1,.582,1,.563,0,.6-.378.6-1v-.5h1.372v.539c0,1.38-.594,2.218-2,2.218-1.273,0-1.923-.928-1.923-2.218v-3.218a1.969,1.969,0,0,1,2.024-2.108c1.278,0,1.9.811,1.9,2.108Z" transform="translate(-2049.36 -273.488)" fill="#fff"/><path d="M2102.1,290.711c-.494,0-.6.348-.6.84v.725h1.178v-.725C2102.685,291.066,2102.58,290.711,2102.1,290.711Z" transform="translate(-2083.256 -284.683)" fill="#fff"/><path d="M2087.893,290.706a.983.983,0,0,0-.274.219v4.466a1.146,1.146,0,0,0,.315.252.564.564,0,0,0,.68-.073.811.811,0,0,0,.117-.493v-3.7a.9.9,0,0,0-.143-.551A.553.553,0,0,0,2087.893,290.706Z" transform="translate(-2074.228 -284.634)" fill="#fff"/></g></g></g></g></svg>