<svg xmlns="http://www.w3.org/2000/svg" xmlns:xlink="http://www.w3.org/1999/xlink" width="1080" height="1080" viewBox="0 0 1080 1080">
  <defs>
    <clipPath id="clip-About_icon_Japanese_スクアードについて_">
      <rect width="1080" height="1080"/>
    </clipPath>
  </defs>
  <g id="About_icon_Japanese_スクアードについて_" data-name="About_icon（Japanese”スクアードについて”）" clip-path="url(#clip-About_icon_Japanese_スクアードについて_)">
    <g id="Information" transform="translate(327 324.982)">
      <path id="パス_3900" data-name="パス 3900" d="M93.126,91.721a26.6,26.6,0,0,1,26.318-26.686A26.206,26.206,0,0,1,145.885,91.6a26.544,26.544,0,0,1-25.95,26.807C105.367,118.531,93.37,106.534,93.126,91.721Z" transform="translate(100.236 49.714)" fill="#fff"/>
      <path id="パス_3901" data-name="パス 3901" d="M173.672,200.826a12.931,12.931,0,0,1-3.307,6.243c-9.671,9.915-21.3,15.79-35.253,16.035-6.243.124-12.731.368-18.732-.978-15.911-3.307-24.969-16.895-22.4-32.806,3.06-19.221,6.488-38.195,9.792-57.289.981-5.754,2.2-11.508,2.939-17.263a18.54,18.54,0,0,0-.244-6.364c-.736-3.917-2.695-5.631-6.49-6.243a49.4,49.4,0,0,1-6.12-.612c-2.447-.733-5.262-1.59-7.224-3.06a5.356,5.356,0,0,1,1.225-9.3,15.321,15.321,0,0,1,6.611-1.469c8.69-.124,17.5,0,26.074,0h26.074c6.243,0,9.426,3.183,10.283,9.423s-1.349,12.121-2.45,18.12c-3.181,17.993-6.608,35.865-9.792,53.737-1.1,6.119-2.2,12.242-3.183,18.485a30.277,30.277,0,0,0,0,5.754c1.1,7.954,5.63,10.893,13.219,8.935,2.326-.613,4.408-1.958,6.611-3.06,2.082-.981,4.161-2.326,6.367-3.183C171.467,194.459,174.529,196.91,173.672,200.826Z" transform="translate(83.958 92.156)" fill="#fff"/>
      <path id="パス_3902" data-name="パス 3902" d="M89.838,392.06H88.421c-13.668-.083-22.059-3.655-25.648-10.936-1.283-2.62-3.626-9.527,2.332-17.369l19.008-25.381c2.252-2.9,3.543-4.7,4.058-6.068A172.663,172.663,0,0,1,39.684,212.041c0-95.676,77.835-173.511,173.511-173.511,95.61,0,173.385,77.835,173.385,173.511,0,95.6-77.775,173.385-173.385,173.385a171.546,171.546,0,0,1-54.81-8.917,5.683,5.683,0,0,0-1.579.549,176.775,176.775,0,0,1-19.646,7.879c-2.283.716-4.4,1.268-6.516,1.817l-2.933.776C116.671,390.545,103.938,392.06,89.838,392.06ZM213.2,63.013c-82.175,0-149.028,66.856-149.028,149.028a148.4,148.4,0,0,0,43.621,105.312l1.481,1.487.9,1.889a26.108,26.108,0,0,1,1.34,18.974c-1.912,5.539-4.788,9.467-7.825,13.375L92.935,367.557a116.153,116.153,0,0,0,28.3-3.635l3.293-.874c1.691-.428,3.388-.86,5.078-1.4a154.152,154.152,0,0,0,16.1-6.4,31.279,31.279,0,0,1,12.431-3.385l3.813-.04,1.987.7a147.142,147.142,0,0,0,49.263,8.417c82.1,0,148.9-66.8,148.9-148.9C362.1,129.869,295.3,63.013,213.2,63.013Z" transform="translate(0 0)" fill="#fff"/>
    </g>
  </g>
</svg>
