<svg xmlns="http://www.w3.org/2000/svg" xmlns:xlink="http://www.w3.org/1999/xlink" width="1080" height="1080" viewBox="0 0 1080 1080">
  <defs>
    <clipPath id="clip-Add_new_team_icon_Japanese_チームを作る_">
      <rect width="1080" height="1080"/>
    </clipPath>
  </defs>
  <g id="Add_new_team_icon_Japanese_チームを作る_" data-name="Add_new_team_icon（Japanese”チームを作る+”）" clip-path="url(#clip-Add_new_team_icon_Japanese_チームを作る_)">
    <g id="グループ_2491" data-name="グループ 2491" transform="translate(184 -125)">
      <path id="パス_3895" data-name="パス 3895" d="M1095.719,513.438a83.582,83.582,0,0,1,30.145-36.6,82.749,82.749,0,0,1,46.5-14.2h23.7c2.2,0,4.408.1,6.563.281q-.937,1.523-1.8,3.01a5.948,5.948,0,0,0-.35.55h0c-.324.575-.551.979-.678,1.2-.25.429-.525.916-.8,1.457h0c-.025,0-.025.012-.025.024-.027.009-.027.033-.027.06h0c-.428.747-.775,1.43-1.1,2.031l-.025.036c-.15.342-.428.831-.752,1.481l-.023.036q-.527,1.1-1.053,2.166V475c-.127.256-.35.71-.652,1.356-.426.919-.8,1.8-1.176,2.62v.009c-.053.1-.2.441-.451,1.03h0c-.025.033-.025.085-.051.134v.012h0c-.525,1.2-1,2.411-1.479,3.645l-.027.075c-.074.2-.123.342-.146.427l-.029.088h0l-.023.049c-.4,1.051-.775,2.078-1.127,3.13l-.023.052c-.174.547-.326,1.027-.453,1.405-.25.746-.5,1.553-.777,2.4-.2.688-.348,1.224-.473,1.629l.023-.036c-.229.771-.449,1.553-.68,2.348-.172.687-.322,1.284-.449,1.762l.027-.073c-.2.772-.375,1.542-.553,2.3-.15.626-.273,1.235-.426,1.85l.025-.025c-.15.711-.3,1.445-.475,2.237v.087c-.1.538-.229,1.128-.326,1.75-.125.723-.275,1.5-.4,2.36v-.072c-.074.553-.15,1.137-.252,1.786v.049q-.185,1.119-.3,2.275h0c0,.023-.023.036-.023.063v.084h0c-.076.574-.129,1.137-.2,1.7-.1.956-.178,1.774-.225,2.47l-.025.136c-.027.294-.078.831-.127,1.565h0v.1h0c-.076.987-.1,1.895-.15,2.677v.16c-.025.2-.047.638-.078,1.3h0q-.07,2.127-.072,4.269v51.776H1089.18v-32.14a82.782,82.782,0,0,1,6.539-32.373Zm120.746-37.044Zm254.16-13.763a83.112,83.112,0,0,1,83.16,83.168v32.151H1458.32V526.174c0-1.418-.021-2.836-.074-4.256h0c-.023-.671-.047-1.1-.047-1.3v-.16c-.053-.794-.1-1.688-.15-2.665h0v-.039a.076.076,0,0,1-.025-.061h0c-.025-.658-.1-1.245-.123-1.726h0c-.076-.807-.152-1.614-.227-2.409v-.015c-.076-.719-.15-1.294-.2-1.734l-.027-.085c-.074-.674-.178-1.493-.3-2.424h0c-.1-.649-.176-1.232-.273-1.723l.023.073c-.15-.871-.279-1.653-.4-2.364h0c-.1-.634-.229-1.224-.33-1.749l-.023-.073c-.123-.719-.275-1.469-.449-2.251v-.084c-.129-.551-.25-1.088-.375-1.629v-.049c-.2-.771-.379-1.565-.576-2.348l.023.072c-.123-.441-.25-1-.426-1.638h0c-.252-.919-.475-1.729-.678-2.389v-.048c-.123-.417-.25-.928-.475-1.577-.25-.892-.525-1.714-.775-2.473l.021.049c-.15-.426-.3-.892-.473-1.393-.379-1.148-.775-2.216-1.131-3.194l-.076-.173h0c0-.012-.049-.169-.148-.453h0c-.025,0-.025-.01-.025-.01a.1.1,0,0,0-.023-.075h0c-.473-1.26-.979-2.481-1.453-3.656v-.012c-.25-.551-.426-.932-.529-1.161-.324-.81-.7-1.656-1.1-2.521l-.049-.088c-.2-.465-.424-.892-.6-1.284l-.053-.075c-.324-.671-.65-1.394-1.051-2.152h0c-.3-.61-.549-1.123-.777-1.525h0c-.35-.7-.725-1.372-1.074-2.034v.013c-.3-.574-.578-1.052-.807-1.43l-.021-.1c-.176-.258-.375-.65-.652-1.137h0c-.15-.245-.279-.441-.354-.562-.6-1.042-1.25-2.094-1.928-3.157,2.256-.186,4.512-.294,6.793-.294Zm-28.484,3.608ZM1076.756,594.3a14.383,14.383,0,0,0,8.115,2.48h111.473a9.259,9.259,0,0,0,1.15-.072,14.3,14.3,0,0,0,1.43.072H1290a9.414,9.414,0,1,0,0-18.827h-86.744V526.174c0-1.2,0-2.4.051-3.582,0-.2.053-.577.076-1.14.051-.918.076-1.725.123-2.42v-.1c0-.208.053-.646.1-1.3.078-.819.152-1.529.205-2.106l.025-.085c.049-.441.1-.879.15-1.32l.021-.16c.078-.659.152-1.321.252-1.994.051-.439.127-.916.229-1.457v-.073c.1-.586.2-1.232.322-1.955.076-.44.176-.915.275-1.444.125-.622.25-1.284.43-2.007v-.024c.07-.452.176-.892.275-1.309l.023-.06c.152-.662.3-1.3.449-1.922l.025-.088c.127-.523.252-.964.324-1.281l.031-.063c.174-.646.348-1.3.547-1.968v-.026c.176-.575.3-1,.375-1.27l.025-.052c.178-.646.428-1.369.676-2.128v-.06c.152-.43.277-.8.379-1.067.3-.892.6-1.762.926-2.629l-.025.075c.15-.38.229-.613.254-.71.4-1.019.8-2.046,1.252-3.086l.076-.145c0-.012.121-.281.35-.807l-.029.012c.354-.771.654-1.5.951-2.154l.053-.072c.076-.185.275-.563.551-1.152l-.025.036c.328-.671.631-1.3.953-1.931.127-.27.35-.662.625-1.211l-.025.035c.354-.674.656-1.232.932-1.713l.021-.085c.2-.345.426-.747.678-1.2l.025-.026c.277-.478.426-.795.523-.94l.152-.26q1.277-2.143,2.48-4.034h0a100.7,100.7,0,0,1,35.506-33.131,99.551,99.551,0,0,1,48.506-12.518h36.057a99.459,99.459,0,0,1,48.529,12.542,100.67,100.67,0,0,1,35.533,33.191c.824,1.3,1.65,2.644,2.449,4.049l.078.109c.072.111.123.208.176.284.125.193.252.438.428.743.3.525.521.942.725,1.3h0c.3.589.6,1.151.9,1.717l.053.1c.248.478.449.88.6,1.173h0c.3.59.6,1.224.928,1.895.2.43.4.822.576,1.2.3.649.6,1.345.9,2.079l.047.121c.229.441.328.737.379.846v-.012c.451,1.072.877,2.127,1.277,3.154l.027.088h0a3.682,3.682,0,0,0,.145.4c.354.967.682,1.871.98,2.705.1.316.225.683.352,1.1l.023.036c.227.774.479,1.481.678,2.131l.025.072c.076.293.2.707.348,1.26.229.747.4,1.385.555,1.9l.025.158c.1.317.2.746.326,1.284l.023.072c.15.626.3,1.261.451,1.911.125.488.227.979.35,1.456.1.61.25,1.26.379,1.942.1.538.174,1.019.25,1.444h0c.148.731.25,1.382.352,1.959v.061c.1.55.145.99.2,1.357l.025.2c.074.513.172,1.187.275,1.967.072.6.125,1.079.15,1.408.074.71.15,1.42.2,2.131v.133c.053.492.1.895.127,1.212v.111c.051.684.078,1.49.129,2.412.021.56.047.938.047,1.124.053,1.186.076,2.385.076,3.582v51.776h-86.744a9.414,9.414,0,1,0,0,18.827h91.078c.477,0,.98-.024,1.453-.072a8.911,8.911,0,0,0,1.127.072h111.7a14.495,14.495,0,0,0,14.508-14.509V545.8a101.992,101.992,0,0,0-102-102H1446.9a97.316,97.316,0,0,0-19.82,2.047,118.519,118.519,0,0,0-87.668-38.6h-36.057a118.5,118.5,0,0,0-57.654,14.875,119.7,119.7,0,0,0-29.992,23.672,97.3,97.3,0,0,0-19.641-2h-23.7a101.97,101.97,0,0,0-102,102.01v36.458a14.366,14.366,0,0,0,6.393,12.028Z" transform="translate(-964.999 240.945)" fill="#fff" stroke="#fff" stroke-width="1"/>
      <path id="パス_3896" data-name="パス 3896" d="M1252.4,450.122a54.769,54.769,0,0,1-19.691,23.892,54.131,54.131,0,1,1,19.691-23.892Zm-9.17-81.789a72.934,72.934,0,1,0,26.51,32.178,72.816,72.816,0,0,0-26.51-32.178Z" transform="translate(-845.969 137)" fill="#fff" stroke="#fff" stroke-width="1"/>
      <path id="パス_3897" data-name="パス 3897" d="M1177.76,448.947a38.393,38.393,0,0,1-13.906,16.863,38.3,38.3,0,0,1-56.674-46.664,38.307,38.307,0,0,1,70.58,29.8Zm-3.357-62.258a57.109,57.109,0,1,0-9.7,99.991,57.118,57.118,0,0,0,9.7-99.991Z" transform="translate(-934.689 179.632)" fill="#fff" stroke="#fff" stroke-width="1"/>
      <path id="パス_3898" data-name="パス 3898" d="M1276.123,448.947a38.522,38.522,0,0,1-13.881,16.863,38.42,38.42,0,0,1-36.309,3.532,38.5,38.5,0,0,1-16.861-13.883,38.376,38.376,0,0,1-3.531-36.313,38.539,38.539,0,0,1,13.881-16.849,38.417,38.417,0,0,1,36.3-3.533,38.508,38.508,0,0,1,16.863,13.884,38.337,38.337,0,0,1,3.535,36.3Zm-3.336-62.258a57.045,57.045,0,1,0,20.67,25.128,57.068,57.068,0,0,0-20.67-25.128Z" transform="translate(-735.791 179.632)" fill="#fff" stroke="#fff" stroke-width="1"/>
    </g>
  </g>
</svg>
