<svg xmlns="http://www.w3.org/2000/svg" width="36.615" height="43.49" viewBox="0 0 36.615 43.49">
  <path id="Path_4479" data-name="Path 4479" d="M1057.084,776.047a13.348,13.348,0,1,0-17.937,12.538l.455-11.045-4.135-4.03,5.714-.83,2.555-5.178,2.555,5.178,5.714.83-4.135,4.03.455,11.045A13.353,13.353,0,0,0,1057.084,776.047Z" transform="translate(-1025.389 -757.699)" fill="#fff"/>
  <path id="Path_4478" data-name="Path 4478" d="M985.4,699.4a18.307,18.307,0,1,0-23.108,17.664l-.31,7.518,5.111-2.687,5.111,2.687-.31-7.518A18.337,18.337,0,0,0,985.4,699.4Zm-13.581,15.866-.137-3.328a13.408,13.408,0,0,1-9.179,0l-.137,3.328a16.557,16.557,0,1,1,9.454,0Z" transform="translate(-948.785 -681.096)" fill="#fff"/>
</svg>