<svg xmlns="http://www.w3.org/2000/svg" xmlns:xlink="http://www.w3.org/1999/xlink" width="1080" height="1080" viewBox="0 0 1080 1080">
  <defs>
    <clipPath id="clip-Faq_icon_Japanese_よくある質問_">
      <rect width="1080" height="1080"/>
    </clipPath>
  </defs>
  <g id="Faq_icon_Japanese_よくある質問_" data-name="Faq_icon（Japanese”よくある質問”）" clip-path="url(#clip-Faq_icon_Japanese_よくある質問_)">
    <g id="グループ_2717" data-name="グループ 2717" transform="translate(-576.304 -729.9)">
      <path id="パス_3911" data-name="パス 3911" d="M1241.536,1336.357c0-.005.011-.009.016-.016q.494-.371.983-.756l.077-.06c.3-.244.61-.49.91-.741.055-.044.107-.087.162-.135.273-.226.544-.457.814-.69.095-.08.188-.167.282-.248.229-.2.457-.4.683-.608.155-.138.3-.284.455-.428.167-.151.335-.3.5-.464.32-.3.634-.61.947-.923h0a54.13,54.13,0,0,0,15.378-30.471,55.341,55.341,0,0,0,.59-8.084V1160.346a54.162,54.162,0,0,0-15.089-37.656l-.39-.4c-.164-.167-.326-.337-.492-.5-.036-.036-.073-.073-.109-.107-.135-.135-.271-.266-.408-.4-.2-.195-.4-.388-.606-.581-.131-.125-.266-.248-.4-.373-.222-.208-.444-.411-.67-.612-.113-.1-.222-.2-.337-.3-.277-.244-.553-.482-.832-.721-.062-.051-.124-.1-.186-.156q-2.106-1.764-4.348-3.3v.016a54.479,54.479,0,0,0-30.66-9.437H971.422a54.527,54.527,0,0,0-54.526,54.527v132.387a54.527,54.527,0,0,0,54.526,54.527h6.009l9.9,49.481a6.587,6.587,0,0,0,9.723,4.437l94.807-53.919h116.95A54.119,54.119,0,0,0,1241.536,1336.357Zm-151.421-2.281h-.022c-.1,0-.195.006-.292.009a.28.28,0,0,0-.038,0c-.1.005-.2.015-.292.022-.014,0-.028,0-.042,0-.092.009-.182.02-.274.035l-.062.009c-.078.013-.158.026-.239.042-.03.007-.062.011-.094.018-.064.013-.13.029-.194.045-.045.011-.09.02-.134.035s-.1.025-.148.04l-.178.053c-.034.011-.067.024-.1.036-.072.024-.144.047-.216.075l-.07.029c-.082.031-.162.064-.242.1-.016.007-.034.013-.05.022-.086.04-.17.078-.252.12-.016.007-.032.014-.048.024l-.244.131a.1.1,0,0,1-.026.013l-88.389,50.27-9.163-45.812a6.555,6.555,0,0,0-2.007-3.578c-.012-.009-.022-.022-.032-.031-.054-.049-.11-.1-.164-.142-.028-.024-.056-.046-.082-.071l-.122-.095c-.046-.033-.09-.073-.137-.106l-.074-.051c-.064-.047-.126-.093-.19-.137a.28.28,0,0,1-.03-.018,6.5,6.5,0,0,0-1.686-.8h0c-.1-.033-.2-.06-.3-.087a6.685,6.685,0,0,0-1.666-.206H971.422a41.389,41.389,0,0,1-41.344-41.343V1160.346A41.391,41.391,0,0,1,971.422,1119h237.387a41.316,41.316,0,0,1,30.66,13.608v.033a41.174,41.174,0,0,1,10.681,27.7v132.387q0,.519-.011,1.034c0,.113-.009.226-.013.341-.007.228-.016.455-.026.685-.007.137-.018.271-.025.408-.011.2-.022.408-.038.61-.011.146-.024.29-.036.439-.016.188-.033.382-.049.572-.016.151-.033.3-.051.452-.02.186-.04.37-.062.552-.02.156-.04.309-.06.46-.026.18-.049.361-.076.541-.024.151-.047.308-.071.464-.029.175-.058.348-.089.524-.026.155-.053.311-.082.466-.031.171-.066.341-.1.513-.029.157-.062.313-.095.468s-.073.337-.109.5-.071.315-.107.474-.08.326-.12.488-.08.319-.12.477-.086.317-.129.475-.087.319-.133.477-.089.308-.138.461-.095.326-.146.486-.093.29-.142.433c-.055.167-.107.335-.164.5l-.126.359c-.164.461-.333.92-.508,1.373-.009.018-.016.04-.024.058-.076.2-.158.388-.237.581-.044.107-.086.217-.131.321-.076.184-.157.364-.237.546-.051.113-.1.229-.151.342q-.12.265-.246.535c-.051.113-.1.226-.16.341-.084.177-.169.351-.255.528l-.169.337-.269.521c-.058.109-.117.222-.175.331-.093.171-.187.344-.284.517-.06.106-.12.215-.18.323-.1.173-.195.342-.295.511-.06.106-.122.209-.184.313-.1.171-.209.344-.313.515-.06.1-.122.2-.184.293-.109.173-.22.348-.329.519-.06.093-.122.182-.182.277l-.351.524-.173.248c-.126.18-.249.359-.379.537-.049.069-.1.14-.151.208-.138.191-.277.38-.417.568l-.1.127q-1.079,1.423-2.276,2.749a41.256,41.256,0,0,1-30.66,13.636Z" transform="translate(0 0.001)" fill="#fff"/>
      <path id="パス_3912" data-name="パス 3912" d="M2092.27,1348.589c-1.184-1.18-2.527-2.36-3.816-3.428-.138-.12-.276-.237-.418-.344l-.011-.009s0,0,0,0a6.592,6.592,0,0,0-8.117,10.386,41.652,41.652,0,0,1,15.152,31.956v132.387a41.39,41.39,0,0,1-41.342,41.344h-11.391a6.333,6.333,0,0,0-1.664.206c-.1.024-.2.053-.3.084h0a6.577,6.577,0,0,0-1.686.8.219.219,0,0,1-.029.018c-.065.042-.127.089-.189.135-.029.018-.054.035-.076.051-.047.035-.091.073-.135.107s-.084.062-.124.093a1,1,0,0,1-.08.073c-.055.045-.109.091-.164.14a.427.427,0,0,0-.033.031,6.519,6.519,0,0,0-2.007,3.582L2026.668,1612l-88.388-50.266a.217.217,0,0,1-.026-.017c-.08-.044-.164-.085-.244-.129l-.047-.024c-.08-.042-.167-.082-.251-.118-.018-.007-.036-.016-.051-.024-.08-.034-.16-.069-.24-.1a.649.649,0,0,1-.073-.029c-.069-.026-.142-.049-.215-.075-.033-.011-.069-.027-.105-.036-.055-.018-.117-.035-.175-.051s-.1-.029-.149-.042l-.131-.033-.2-.047-.095-.016-.237-.044a.544.544,0,0,1-.062-.007c-.091-.014-.182-.025-.273-.036l-.044,0c-.095-.011-.193-.018-.291-.024a.275.275,0,0,1-.04,0c-.095,0-.193-.005-.291-.005h-40.061a6.591,6.591,0,1,0,0,13.182h38.294l94.808,53.919a6.591,6.591,0,0,0,9.723-4.436l9.9-49.483h6.009a54.532,54.532,0,0,0,54.529-54.527V1387.145A54.174,54.174,0,0,0,2092.27,1348.589Z" transform="translate(-792.72 -193.925)" fill="#fff"/>
      <path id="パス_3913" data-name="パス 3913" d="M1337.782,1492.072a6.591,6.591,0,1,0,0-13.182h-44.527a6.592,6.592,0,0,0-6.589,6.593v88.5a6.592,6.592,0,0,0,13.184,0V1534.7h30.141a6.591,6.591,0,0,0,0-13.182H1299.85v-29.448Z" transform="translate(-301.725 -304.417)" fill="#fff"/>
      <path id="パス_3914" data-name="パス 3914" d="M1616.254,1483.238a6.587,6.587,0,0,0-6.2-4.348h-.011a6.586,6.586,0,0,0-6.194,4.372l-31.647,88.522a6.591,6.591,0,1,0,12.412,4.439l9.93-27.787h31.266l10.06,27.811a6.591,6.591,0,0,0,12.4-4.485Zm-16.993,52.018,10.828-30.292,10.959,30.292Z" transform="translate(-534.401 -304.417)" fill="#fff"/>
      <path id="パス_3915" data-name="パス 3915" d="M2083.2,1566.642a49.743,49.743,0,0,0,5-6.362,55.335,55.335,0,0,0,8.966-30.642,54.538,54.538,0,0,0-12.625-35.5c-8.4-9.829-19.65-15.244-31.681-15.244s-23.288,5.415-31.689,15.244a54.535,54.535,0,0,0-12.622,35.5,55.731,55.731,0,0,0,9.814,31.887,43.9,43.9,0,0,0,25.356,17.783,39.3,39.3,0,0,0,9.14,1.078,6.591,6.591,0,0,0,0-13.182,26.147,26.147,0,0,1-6.067-.716c-14.522-3.479-25.061-18.978-25.061-36.851,0-20.715,13.962-37.566,31.128-37.566s31.121,16.851,31.121,37.566a42.2,42.2,0,0,1-6.777,23.372,36.134,36.134,0,0,1-3.62,4.616,30.96,30.96,0,0,0-5.269-7.635c-3.722-3.78-10.244-7.491-20.2-3.7a6.591,6.591,0,1,0,4.69,12.319c4.949-1.883,6.649-1.043,12.01,11.567,2.108,4.963,4.293,10.094,7.7,13.993a16.848,16.848,0,0,0,13.008,6.194,19.951,19.951,0,0,0,4.781-.6,6.591,6.591,0,0,0-3.143-12.8c-2.939.719-4.657-.12-7.818-6.619A46.729,46.729,0,0,0,2083.2,1566.642Z" transform="translate(-890.761 -304.417)" fill="#fff"/>
    </g>
  </g>
</svg>
