<svg xmlns="http://www.w3.org/2000/svg" xmlns:xlink="http://www.w3.org/1999/xlink" width="60.391" height="60.391" viewBox="0 0 60.391 60.391">
  <defs>
    <linearGradient id="linear-gradient" x1="0.5" x2="0.5" y2="1" gradientUnits="objectBoundingBox">
      <stop offset="0" stop-color="#fbe62e"/>
      <stop offset="1" stop-color="#af1a3d"/>
    </linearGradient>
    <filter id="Ellipse_50" x="0" y="0" width="60.391" height="60.391" filterUnits="userSpaceOnUse">
      <feOffset dy="3" input="SourceAlpha"/>
      <feGaussianBlur stdDeviation="3" result="blur"/>
      <feFlood flood-opacity="0.161"/>
      <feComposite operator="in" in2="blur"/>
      <feComposite in="SourceGraphic"/>
    </filter>
    <filter id="Path_4655" x="8.308" y="8.092" width="43.671" height="44.373" filterUnits="userSpaceOnUse">
      <feOffset dy="3" input="SourceAlpha"/>
      <feGaussianBlur stdDeviation="3" result="blur-2"/>
      <feFlood flood-opacity="0.161"/>
      <feComposite operator="in" in2="blur-2"/>
      <feComposite in="SourceGraphic"/>
    </filter>
    <filter id="Path_4656" x="14.114" y="14.109" width="32.137" height="32.136" filterUnits="userSpaceOnUse">
      <feOffset dy="3" input="SourceAlpha"/>
      <feGaussianBlur stdDeviation="3" result="blur-3"/>
      <feFlood flood-opacity="0.161"/>
      <feComposite operator="in" in2="blur-3"/>
      <feComposite in="SourceGraphic"/>
    </filter>
    <filter id="Path_4657" x="26.691" y="12.325" width="21.347" height="21.347" filterUnits="userSpaceOnUse">
      <feOffset dy="3" input="SourceAlpha"/>
      <feGaussianBlur stdDeviation="3" result="blur-4"/>
      <feFlood flood-opacity="0.161"/>
      <feComposite operator="in" in2="blur-4"/>
      <feComposite in="SourceGraphic"/>
    </filter>
  </defs>
  <g id="Group_2988" data-name="Group 2988" transform="translate(-119 -665.109)">
    <g transform="matrix(1, 0, 0, 1, 119, 665.11)" filter="url(#Ellipse_50)">
      <ellipse id="Ellipse_50-2" data-name="Ellipse 50" cx="21.195" cy="21.195" rx="21.195" ry="21.195" transform="translate(9 6)" fill="url(#linear-gradient)"/>
    </g>
    <g transform="matrix(1, 0, 0, 1, 119, 665.11)" filter="url(#Path_4655)">
      <path id="Path_4655-2" data-name="Path 4655" d="M1581.719,101.781h-10.734a7.49,7.49,0,0,1-7.468-7.468V82.875a7.49,7.49,0,0,1,7.468-7.467h10.734a7.49,7.49,0,0,1,7.469,7.467V94.313a7.491,7.491,0,0,1-7.469,7.468m0-1.974a5.515,5.515,0,0,0,5.495-5.494V82.875a5.515,5.515,0,0,0-5.495-5.494h-10.734a5.515,5.515,0,0,0-5.494,5.494V94.313a5.515,5.515,0,0,0,5.494,5.494Z" transform="translate(-1546.21 -61.32)" fill="#fff"/>
    </g>
    <g transform="matrix(1, 0, 0, 1, 119, 665.11)" filter="url(#Path_4656)">
      <path id="Path_4656-2" data-name="Path 4656" d="M1594.091,99.507a7.068,7.068,0,1,1-7.069-7.068,7.068,7.068,0,0,1,7.069,7.068m-7.1-4.623a4.629,4.629,0,1,0,4.628,4.628,4.628,4.628,0,0,0-4.628-4.628" transform="translate(-1556.84 -72.33)" fill="#fff"/>
    </g>
    <g transform="matrix(1, 0, 0, 1, 119, 665.11)" filter="url(#Path_4657)">
      <path id="Path_4657-2" data-name="Path 4657" d="M1618.9,89.063a1.674,1.674,0,1,1-1.675-1.674,1.674,1.674,0,0,1,1.675,1.674" transform="translate(-1579.87 -69.06)" fill="#fff"/>
    </g>
  </g>
</svg>
