<svg xmlns="http://www.w3.org/2000/svg" xmlns:xlink="http://www.w3.org/1999/xlink" width="1080" height="1080" viewBox="0 0 1080 1080">
  <defs>
    <clipPath id="clip-Legal_information_icon_Japanese_特定商取引法に基づく表記_">
      <rect width="1080" height="1080"/>
    </clipPath>
  </defs>
  <g id="Legal_information_icon_Japanese_特定商取引法に基づく表記_" data-name="Legal_information_icon（Japanese”特定商取引法に基づく表記”）" clip-path="url(#clip-Legal_information_icon_Japanese_特定商取引法に基づく表記_)">
    <path id="パス_4068" data-name="パス 4068" d="M599.543,441.206h-6.19l-45.426-95.081h11.712a5.245,5.245,0,1,0,0-10.489H446.478a26.123,26.123,0,0,0-10.05-15.714V303.087a15.5,15.5,0,1,0-30.992,0v16.834a26.117,26.117,0,0,0-10.051,15.714H282.226a5.245,5.245,0,1,0,0,10.489h11.711l-45.426,95.081h-6.191a5.244,5.244,0,0,0-5.245,5.245c0,12.028,7.1,23.16,19.988,31.347,12.149,7.718,28.2,11.969,45.191,11.969s33.042-4.25,45.193-11.969c12.889-8.187,19.987-19.319,19.987-31.347a5.244,5.244,0,0,0-5.245-5.245H356l-45.426-95.081h84.812a26.119,26.119,0,0,0,10.051,15.713V550.3H358.9c-11.027,0-21.07,4.519-26.212,11.795a43.207,43.207,0,0,0-7.229,16.171,5.244,5.244,0,0,0,5.117,6.394H511.289a5.244,5.244,0,0,0,5.116-6.394,43.2,43.2,0,0,0-7.23-16.172c-5.141-7.275-15.185-11.794-26.211-11.794H436.428V361.838a26.125,26.125,0,0,0,10.05-15.713H531.29l-45.426,95.081h-6.19a5.244,5.244,0,0,0-5.245,5.245c0,12.028,7.1,23.16,19.987,31.347,12.15,7.718,28.2,11.969,45.193,11.969s33.042-4.25,45.192-11.969c12.889-8.187,19.987-19.319,19.987-31.347A5.244,5.244,0,0,0,599.543,441.206ZM415.925,315.289v-12.2a5.007,5.007,0,0,1,10.014,0v12.2c-.05-.01-.1-.016-.149-.025-.352-.067-.705-.129-1.062-.182-.08-.01-.16-.019-.24-.03-.334-.045-.668-.089-1.005-.122-.157-.015-.315-.023-.472-.036-.262-.02-.524-.044-.789-.057q-.643-.033-1.29-.033t-1.29.033c-.265.013-.526.037-.789.057-.158.013-.316.021-.472.036-.337.033-.671.077-1,.122-.08.012-.161.02-.24.03-.357.053-.71.115-1.062.182C416.025,315.273,415.975,315.279,415.925,315.289Zm-74.1,153.655c-10.491,6.663-24.542,10.333-39.569,10.333s-29.078-3.67-39.568-10.333c-7.678-4.878-12.64-10.867-14.4-17.249H356.226C354.463,458.077,349.5,464.066,341.824,468.944Zm-81.687-27.738,42.119-88.159,42.12,88.159ZM500.609,568.144a35.115,35.115,0,0,1,3.481,6.022H337.774a35.126,35.126,0,0,1,3.48-6.022c3.16-4.47,10.086-7.359,17.646-7.359H482.963C490.524,560.785,497.45,563.673,500.609,568.144Zm-74.67-201.672V550.3H415.925V366.471l.137.022c.36.069.724.132,1.09.186l.092.012a25.728,25.728,0,0,0,7.375,0l.093-.012c.366-.053.729-.117,1.09-.186Zm2.548-11.963c-.238.133-.479.26-.723.379l-.063.032c-.279.135-.563.26-.85.377-.054.022-.108.043-.162.064-.247.1-.5.191-.749.276l-.144.05a15.836,15.836,0,0,1-1.859.488l-.055.01c-.281.054-.564.1-.849.138l-.213.027c-.241.029-.483.052-.726.071-.077,0-.155.012-.233.018-.309.018-.619.03-.929.03s-.62-.012-.929-.03c-.079-.005-.156-.013-.234-.018-.243-.019-.484-.042-.726-.071l-.213-.027c-.285-.04-.568-.084-.849-.138l-.055-.01a15.819,15.819,0,0,1-1.859-.488l-.144-.05c-.251-.085-.5-.178-.749-.275-.054-.021-.108-.042-.162-.064q-.431-.176-.851-.377l-.063-.032c-.244-.119-.484-.246-.722-.379a15.577,15.577,0,0,1,0-27.257c.238-.132.479-.261.722-.379l.063-.032q.42-.2.851-.378l.162-.064c.247-.1.5-.19.748-.276l.145-.049a15.642,15.642,0,0,1,1.859-.487l.055-.01c.281-.054.564-.1.849-.138l.213-.027c.241-.03.483-.052.726-.07l.234-.018c.309-.019.619-.03.929-.03s.62.012.929.03l.233.018c.243.019.485.041.726.07l.213.027c.284.039.567.084.849.138l.055.01a15.635,15.635,0,0,1,1.858.487l.146.049c.252.085.5.178.748.276.054.022.108.042.162.064q.431.176.85.378l.063.032c.244.119.485.248.723.379a15.577,15.577,0,0,1,0,27.257Zm111.122-1.462,42.118,88.159H497.489Zm39.568,115.9c-10.49,6.663-24.543,10.333-39.568,10.333s-29.078-3.67-39.569-10.333c-7.678-4.878-12.639-10.867-14.4-17.249H593.58C591.816,458.077,586.854,464.066,579.177,468.944Z" transform="translate(119 103.397)" fill="#fff"/>
  </g>
</svg>
