<svg xmlns="http://www.w3.org/2000/svg" width="212.205" height="212.203" viewBox="0 0 212.205 212.203"><g transform="translate(-804.729 -906.029)"><g transform="translate(848.135 949.434)"><path d="M1037.982,1076.584a62.7,62.7,0,1,0,62.7,62.7A62.695,62.695,0,0,0,1037.982,1076.584Z" transform="translate(-975.286 -1076.584)" fill="none" stroke="#fff" stroke-width="6.5"/><path d="M1069.395,1251.714l11.822-11.822,20.576,20.578,31.936-32,11.894,11.891-43.829,43.75Z" transform="translate(-1045.445 -1189.818)" fill="#fff"/></g><path d="M1003.253,959.837l-5.158,2.918A100.28,100.28,0,0,1,861.471,1099.4c-1.262-.723-2.524-1.479-3.755-2.245a102.124,102.124,0,0,1-16.383-12.869h10.156v-5.926H831.126v20.363h5.926v-10.334a107.986,107.986,0,0,0,17.522,13.789c1.305.812,2.628,1.607,3.967,2.373a106.207,106.207,0,0,0,144.713-144.716ZM839.965,941.263A100.489,100.489,0,0,1,960.22,924.9c1.142.627,2.367,1.353,3.746,2.219A101.973,101.973,0,0,1,980.362,940H970.173v5.925h20.363V925.565H984.61v10.3A107.833,107.833,0,0,0,967.119,922.1c-1.479-.93-2.8-1.714-4.014-2.378a106.189,106.189,0,0,0-144.7,144.695l5.158-2.917A100.545,100.545,0,0,1,839.965,941.263Z" transform="translate(0 0)" fill="#fff"/></g></svg>