<svg xmlns="http://www.w3.org/2000/svg" xmlns:xlink="http://www.w3.org/1999/xlink" width="1080" height="1080" viewBox="0 0 1080 1080">
  <defs>
    <clipPath id="clip-Privacy_policy_icon_Japanese_個人情報の取り扱いについて_">
      <rect width="1080" height="1080"/>
    </clipPath>
  </defs>
  <g id="Privacy_policy_icon_Japanese_個人情報の取り扱いについて_" data-name="Privacy_policy_icon（Japanese”個人情報の取り扱いについて”）" clip-path="url(#clip-Privacy_policy_icon_Japanese_個人情報の取り扱いについて_)">
    <g id="グループ_2719" data-name="グループ 2719" transform="translate(72 124.997)">
      <g id="グループ_2714" data-name="グループ 2714" transform="translate(276.556 200.003)">
        <path id="パス_4065" data-name="パス 4065" d="M468.337,630.671c-.263,0-.526-.006-.786-.023-2.907-.174-71.767-4.922-126.442-69.378-53.548-63.126-73.936-159.33-60.59-285.933a13.462,13.462,0,0,1,8.79-11.24L463.75,200.809a13.475,13.475,0,0,1,9.18,0L647.368,264.1a13.456,13.456,0,0,1,8.792,11.24c13.345,126.6-7.041,222.807-60.592,285.933-54.675,64.457-123.538,69.2-126.439,69.378C468.863,630.665,468.6,630.671,468.337,630.671Zm-161.89-344.16c-10.826,114.837,7.726,201.394,55.181,257.344C405.9,596.049,460.934,603,468.3,603.709c7.317-.743,63.1-8.037,107.157-60.35,47.154-55.973,65.562-142.366,54.768-256.851L468.337,227.775Z" transform="translate(-276.555 -200.003)" fill="#fff"/>
      </g>
      <g id="グループ_2715" data-name="グループ 2715" transform="translate(387.594 300.939)">
        <path id="パス_4066" data-name="パス 4066" d="M778.887,608.871h-5.454V568.158A40.082,40.082,0,0,0,733.4,528.121H703.113a40.081,40.081,0,0,0-40.034,40.037v40.713h-5.447a20.194,20.194,0,0,0-20.118,20.159v80.813A20.191,20.191,0,0,0,657.632,730H778.88a20.193,20.193,0,0,0,20.112-20.154H799V629.03A20.191,20.191,0,0,0,778.887,608.871Zm-52.222,58.3v31.71a4.215,4.215,0,0,1-4.205,4.2h-8.412a4.218,4.218,0,0,1-4.206-4.2v-31.71a16.824,16.824,0,1,1,16.823,0Zm19.851-58.3H689.993V568.158a13.135,13.135,0,0,1,13.112-13.12h30.286a13.14,13.14,0,0,1,13.124,13.12v40.713Z" transform="translate(-637.514 -528.121)" fill="#fff"/>
      </g>
    </g>
  </g>
</svg>
