<svg xmlns="http://www.w3.org/2000/svg" xmlns:xlink="http://www.w3.org/1999/xlink" width="43.772" height="43.772" viewBox="0 0 43.772 43.772">
  <defs>
    <filter id="Path_4481" x="0" y="3.508" width="40.264" height="40.264" filterUnits="userSpaceOnUse">
      <feOffset dy="3" input="SourceAlpha"/>
      <feGaussianBlur stdDeviation="3" result="blur"/>
      <feFlood flood-opacity="0.161"/>
      <feComposite operator="in" in2="blur"/>
      <feComposite in="SourceGraphic"/>
    </filter>
    <filter id="Path_4482" x="11.615" y="0" width="32.157" height="32.157" filterUnits="userSpaceOnUse">
      <feOffset dy="3" input="SourceAlpha"/>
      <feGaussianBlur stdDeviation="3" result="blur-2"/>
      <feFlood flood-opacity="0.161"/>
      <feComposite operator="in" in2="blur-2"/>
      <feComposite in="SourceGraphic"/>
    </filter>
  </defs>
  <g id="Group_2809" data-name="Group 2809" transform="translate(-279 -864.852)">
    <g transform="matrix(1, 0, 0, 1, 279, 864.85)" filter="url(#Path_4481)">
      <path id="Path_4481-2" data-name="Path 4481" d="M102.668,127.8v5.593a4.4,4.4,0,0,1-4.393,4.394H87.6V127.1a4.4,4.4,0,0,1,4.393-4.394h5.593l3.6-3.6H91.989A8,8,0,0,0,84,127.1v14.274H98.274a8,8,0,0,0,7.989-7.99V124.2Z" transform="translate(-75 -109.61)" fill="#fff"/>
    </g>
    <g transform="matrix(1, 0, 0, 1, 279, 864.85)" filter="url(#Path_4482)">
      <path id="Path_4482-2" data-name="Path 4482" d="M214.429,84H206.8l2.546,2.546-9.069,9.069,2.543,2.543,9.069-9.069,2.546,2.546Z" transform="translate(-179.66 -78)" fill="#fff"/>
    </g>
  </g>
</svg>
