<svg xmlns="http://www.w3.org/2000/svg" xmlns:xlink="http://www.w3.org/1999/xlink" width="1080" height="1080" viewBox="0 0 1080 1080">
  <defs>
    <clipPath id="clip-Settings_icon_Japanese_設定_">
      <rect width="1080" height="1080"/>
    </clipPath>
  </defs>
  <g id="Settings_icon_Japanese_設定_" data-name="Settings_icon（Japanese”設定”）" clip-path="url(#clip-Settings_icon_Japanese_設定_)">
    <g id="グループ_2485" data-name="グループ 2485" transform="translate(230.933 229.253)">
      <path id="パス_3823" data-name="パス 3823" d="M479.046,291.706l-17.227-7.977a68.047,68.047,0,0,0-3.862-20.582l13.2-13.774a4.19,4.19,0,0,0,.164-4.337,86.58,86.58,0,0,0-9.038-13.8,4.494,4.494,0,0,0-3.313-1.681,2.8,2.8,0,0,0-.8.121l-17.818,6.552A68.065,68.065,0,0,0,423.062,224.4l-.409-19.088a4.254,4.254,0,0,0-2.954-3.166,88.04,88.04,0,0,0-16.115-3.363,4.193,4.193,0,0,0-4.031,1.809l-7.972,17.226a68.062,68.062,0,0,0-20.587,3.865L357.219,208.47a4.351,4.351,0,0,0-4.331-.154,87,87,0,0,0-13.8,9.033,4.257,4.257,0,0,0-1.566,4.122l6.557,17.818a67.984,67.984,0,0,0-11.825,17.285l-19.081.411A4.222,4.222,0,0,0,310,259.941a87.451,87.451,0,0,0-3.368,16.119,4.232,4.232,0,0,0,1.81,4.022l17.223,7.977a68.1,68.1,0,0,0,3.868,20.581l-13.209,13.777a4.194,4.194,0,0,0-.156,4.334,86.566,86.566,0,0,0,9.032,13.8,4.5,4.5,0,0,0,3.314,1.68,2.827,2.827,0,0,0,.808-.12l17.814-6.553a68.088,68.088,0,0,0,17.288,11.825l.416,19.077a4.229,4.229,0,0,0,2.949,3.174A87.677,87.677,0,0,0,383.907,373a4.031,4.031,0,0,0,.5.03,4.1,4.1,0,0,0,3.53-1.835l7.983-17.225a68.2,68.2,0,0,0,20.582-3.862l13.776,13.206a4.351,4.351,0,0,0,4.336.158,86.739,86.739,0,0,0,13.8-9.036,4.247,4.247,0,0,0,1.561-4.123L443.409,332.5a68.119,68.119,0,0,0,11.831-17.285l19.081-.414a4.242,4.242,0,0,0,3.167-2.954,87.517,87.517,0,0,0,3.367-16.117A4.223,4.223,0,0,0,479.046,291.706Zm-39.474-6.792a45.839,45.839,0,1,1-46.809-44.846c.361-.009.721-.013,1.083-.013a45.852,45.852,0,0,1,45.726,44.859Z" transform="translate(12.444 6.188)" fill="#fff"/>
      <path id="パス_3824" data-name="パス 3824" d="M358.143,365.646a118.325,118.325,0,0,0-4.086-17.23,5.575,5.575,0,0,0-4.387-3.835l-20.784-.392a96.271,96.271,0,0,0-11.543-19.046l9.149-18.489.061-.137a5.516,5.516,0,0,0-1.38-5.685,119.029,119.029,0,0,0-13.456-11.57,5.683,5.683,0,0,0-5.794-.494L288.88,300.659a95.473,95.473,0,0,0-20.543-8.6l-3.447-20.335-.03-.145a5.517,5.517,0,0,0-4.448-3.793,118.067,118.067,0,0,0-17.673-1.473,5.513,5.513,0,0,0-4.988,3l-6.825,19.624a95.526,95.526,0,0,0-21.672,5.133l-14.747-14.4-.123-.112A4.928,4.928,0,0,0,191.2,278.5a5.748,5.748,0,0,0-2.623.613,118.92,118.92,0,0,0-15.146,9.182,5.511,5.511,0,0,0-2.285,5.359l6.015,19.895a94.818,94.818,0,0,0-14.522,16.892l-20.412-2.972-.158-.016a5.524,5.524,0,0,0-4.963,3.068,119.025,119.025,0,0,0-6.833,16.326,5.5,5.5,0,0,0,1.318,5.673l16.55,12.547a94.98,94.98,0,0,0-1.852,22.2l-18.262,9.594-.124.069a5.492,5.492,0,0,0-2.227,5.411,117.71,117.71,0,0,0,4.084,17.225,5.556,5.556,0,0,0,4.4,3.839l20.778.4a96.085,96.085,0,0,0,11.542,19.046l-9.148,18.488-.062.137a5.509,5.509,0,0,0,1.377,5.678,118.34,118.34,0,0,0,13.45,11.575,5.7,5.7,0,0,0,5.79.5l17.051-11.9a95.491,95.491,0,0,0,20.544,8.6l3.453,20.336.027.139a5.507,5.507,0,0,0,4.448,3.794,118.21,118.21,0,0,0,17.644,1.475h.034a5.525,5.525,0,0,0,4.983-3l6.817-19.629a95.344,95.344,0,0,0,21.678-5.134l14.744,14.409.119.109a4.911,4.911,0,0,0,3.181,1.058,5.781,5.781,0,0,0,2.626-.613,118.6,118.6,0,0,0,15.15-9.178,5.5,5.5,0,0,0,2.28-5.371l-6.005-19.886a94.781,94.781,0,0,0,14.526-16.891l20.408,2.977.157.016q.141.011.285.011a5.6,5.6,0,0,0,4.68-3.08,119.721,119.721,0,0,0,6.833-16.325,5.5,5.5,0,0,0-1.311-5.673l-16.555-12.55a94.81,94.81,0,0,0,1.851-22.2l18.263-9.588.134-.076A5.5,5.5,0,0,0,358.143,365.646ZM308.113,398.38a67.72,67.72,0,0,1-59.455,53.046,65.586,65.586,0,0,1-6.708.344,67.778,67.778,0,0,1-6.8-135.216,65.1,65.1,0,0,1,6.683-.342,67.791,67.791,0,0,1,66.279,82.167Z" transform="translate(0 10.833)" fill="#fff"/>
      <g id="グループ_2484" data-name="グループ 2484" transform="translate(261.685 108.747)">
        <g id="グループ_2483" data-name="グループ 2483" transform="translate(0 0)">
          <path id="パス_3825" data-name="パス 3825" d="M377.429,189.361l-15.053-10.343a47.226,47.226,0,0,0-2.257-20.406l12.428-13.37a3.169,3.169,0,0,0-.118-3.059,63.846,63.846,0,0,0-9.677-13.153,3.112,3.112,0,0,0-2.876-1.023l-16.47,7.867a47.2,47.2,0,0,0-18.793-8.253l-5.394-17.444a3.146,3.146,0,0,0-2.706-1.419,64.8,64.8,0,0,0-16.183,1.788,3.145,3.145,0,0,0-2.32,1.977l-1.459,18.2a46.57,46.57,0,0,0-16.53,12.162l-17.806-4.081a3.226,3.226,0,0,0-2.577,1.626,65.639,65.639,0,0,0-6.569,14.938,3.238,3.238,0,0,0,.553,3.009l15.057,10.346a47.178,47.178,0,0,0,2.257,20.4L258.5,202.5a3.149,3.149,0,0,0,.124,3.054,63.577,63.577,0,0,0,9.672,13.155,3.137,3.137,0,0,0,2.877,1.031l16.463-7.869a47.353,47.353,0,0,0,18.8,8.253l5.394,17.44a3.14,3.14,0,0,0,2.708,1.419,64.986,64.986,0,0,0,16.178-1.788,3.148,3.148,0,0,0,2.321-1.977l1.456-18.2a46.531,46.531,0,0,0,16.532-12.162l17.805,4.085a3.215,3.215,0,0,0,2.569-1.625,65.179,65.179,0,0,0,6.579-14.94A3.242,3.242,0,0,0,377.429,189.361ZM343.9,177.007a28.54,28.54,0,1,1-11.492-26.154h.014l-.007.011A28.578,28.578,0,0,1,343.9,177.007Z" transform="translate(-252.931 -108.747)" fill="#fff"/>
        </g>
      </g>
    </g>
  </g>
</svg>
