<svg xmlns="http://www.w3.org/2000/svg" width="39.826" height="37.798" viewBox="0 0 39.826 37.798">
  <g id="Group_2792" data-name="Group 2792" transform="translate(-664.226 -259.449)">
    <g id="Group_2771" data-name="Group 2771" transform="translate(664.226 259.449)">
      <g id="Group_2767" data-name="Group 2767">
        <path id="Path_4141" data-name="Path 4141" d="M3089.088,198.4a18.558,18.558,0,0,0-7.321-4.456v.16a17.828,17.828,0,1,1-10.727-.013v-.16a17.944,17.944,0,1,0,18.048,4.469Z" transform="translate(-3056.516 -192.627)" fill="#fff"/>
        <path id="Path_4142" data-name="Path 4142" d="M3249.349,708.827c1.213-.4,2.305-.4,2.44.008s-.74,1.061-1.953,1.462a1.286,1.286,0,1,1-.487-1.471Z" transform="translate(-3232.817 -672.676)" fill="#fff"/>
        <path id="Path_4143" data-name="Path 4143" d="M3256.416,679.4c1.068.7,2.125.979,2.359.621s-.441-1.216-1.51-1.917a1.286,1.286,0,1,0-.85,1.3Z" transform="translate(-3239.824 -643.709)" fill="#fff"/>
        <path id="Path_4144" data-name="Path 4144" d="M3187.461,694.725c1.272-.118,2.336.131,2.375.557s-.96.867-2.232.985a4.312,4.312,0,0,1-2.375-.557A4.313,4.313,0,0,1,3187.461,694.725Z" transform="translate(-3174.824 -659.772)" fill="#fff"/>
        <path id="Path_4145" data-name="Path 4145" d="M3206.464,657.933c.883.923,1.85,1.432,2.159,1.136s-.157-1.284-1.04-2.207a1.286,1.286,0,1,0-1.119,1.071Z" transform="translate(-3193.663 -623.418)" fill="#fff"/>
        <path id="Path_4146" data-name="Path 4146" d="M3132.664,664.287c1.266.171,2.246.653,2.189,1.077s-1.13.629-2.4.458a4.31,4.31,0,0,1-2.189-1.077A4.313,4.313,0,0,1,3132.664,664.287Z" transform="translate(-3123.552 -631.377)" fill="#fff"/>
        <path id="Path_4147" data-name="Path 4147" d="M3162.464,625.747c.653,1.1,1.48,1.811,1.848,1.593s.136-1.286-.517-2.384a1.287,1.287,0,1,0-1.332.792Z" transform="translate(-3153.094 -593.228)" fill="#fff"/>
        <path id="Path_4148" data-name="Path 4148" d="M3087.767,620.061c1.2.451,2.042,1.142,1.891,1.542s-1.242.359-2.437-.093a4.314,4.314,0,0,1-1.891-1.542A4.314,4.314,0,0,1,3087.767,620.061Z" transform="translate(-3081.63 -589.934)" fill="#fff"/>
        <path id="Path_4149" data-name="Path 4149" d="M3124.408,584.526c.39,1.217,1.035,2.1,1.442,1.968s.422-1.222.033-2.44a1.287,1.287,0,1,0-1.476.472Z" transform="translate(-3117.932 -554.722)" fill="#fff"/>
        <path id="Path_4150" data-name="Path 4150" d="M3055.07,563.947c1.063.709,1.733,1.572,1.5,1.928s-1.292.07-2.354-.639a4.312,4.312,0,0,1-1.5-1.928A4.312,4.312,0,0,1,3055.07,563.947Z" transform="translate(-3051.207 -537.202)" fill="#fff"/>
        <path id="Path_4151" data-name="Path 4151" d="M3093.642,536.383c.105,1.273.536,2.277.963,2.242s.686-1.1.581-2.37a1.286,1.286,0,1,0-1.544.128Z" transform="translate(-3089.375 -509.876)" fill="#fff"/>
        <path id="Path_4152" data-name="Path 4152" d="M3036.251,500.139c.877.93,1.335,1.921,1.024,2.215s-1.274-.222-2.15-1.152a1.286,1.286,0,1,1,1.127-1.063Z" transform="translate(-3033.841 -477.201)" fill="#fff"/>
        <path id="Path_4153" data-name="Path 4153" d="M3071.821,483.782c-.183,1.264.011,2.339.434,2.4s.915-.914,1.1-2.178a1.286,1.286,0,1,0-1.533-.223Z" transform="translate(-3068.964 -460.985)" fill="#fff"/>
        <path id="Path_4154" data-name="Path 4154" d="M3032.077,433.708c.644,1.1.868,2.172.5,2.388s-1.191-.5-1.836-1.606a1.286,1.286,0,1,1,1.337-.782Z" transform="translate(-3030.226 -414.806)" fill="#fff"/>
        <path id="Path_4155" data-name="Path 4155" d="M3059.389,429.424c-.464,1.19-.516,2.282-.118,2.437s1.1-.684,1.561-1.875a1.286,1.286,0,1,0-1.443-.562Z" transform="translate(-3057.072 -410.559)" fill="#fff"/>
        <path id="Path_4156" data-name="Path 4156" d="M3040.455,368.086c.38,1.22.357,2.312-.051,2.439s-1.048-.758-1.428-1.978a1.286,1.286,0,1,1,1.479-.461Z" transform="translate(-3038.242 -353.242)" fill="#fff"/>
        <path id="Path_4157" data-name="Path 4157" d="M3058.8,376.093c-.719,1.056-1.016,2.107-.662,2.348s1.223-.42,1.942-1.476a4.312,4.312,0,0,0,.662-2.348A4.315,4.315,0,0,0,3058.8,376.093Z" transform="translate(-3056.125 -361.18)" fill="#fff"/>
        <path id="Path_4158" data-name="Path 4158" d="M3060.447,306.635c.1,1.274-.172,2.333-.6,2.365s-.85-.975-.946-2.249a1.286,1.286,0,1,1,1.545-.117Z" transform="translate(-3056.968 -295.663)" fill="#fff"/>
        <path id="Path_4159" data-name="Path 4159" d="M3071.1,326.523c-.938.867-1.464,1.825-1.174,2.139s1.286-.134,2.225-1a4.315,4.315,0,0,0,1.174-2.139A4.314,4.314,0,0,0,3071.1,326.523Z" transform="translate(-3067.19 -315.381)" fill="#fff"/>
        <path id="Path_4160" data-name="Path 4160" d="M3091.049,252.5c-.193,1.263-.693,2.235-1.115,2.17s-.61-1.141-.416-2.4a1.286,1.286,0,1,1,1.531.234Z" transform="translate(-3085.466 -245.023)" fill="#fff"/>
        <path id="Path_4161" data-name="Path 4161" d="M3096.042,283.011c-1.109.634-1.836,1.449-1.625,1.82s1.283.159,2.393-.475a4.311,4.311,0,0,0,1.624-1.82A4.313,4.313,0,0,0,3096.042,283.011Z" transform="translate(-3090.075 -275.263)" fill="#fff"/>
        <path id="Path_4162" data-name="Path 4162" d="M3130.092,208.472c-.472,1.187-1.177,2.022-1.574,1.864s-.337-1.249.135-2.436a4.311,4.311,0,0,1,1.575-1.864A4.314,4.314,0,0,1,3130.092,208.472Z" transform="translate(-3121.674 -203.916)" fill="#fff"/>
        <path id="Path_4163" data-name="Path 4163" d="M3132.486,245.432c-1.223.368-2.115,1-1.992,1.408s1.215.444,2.438.076a4.318,4.318,0,0,0,1.993-1.408A4.315,4.315,0,0,0,3132.486,245.432Z" transform="translate(-3123.753 -240.53)" fill="#fff"/>
        <path id="Path_4164" data-name="Path 4164" d="M3177.4,176.792c-.728,1.051-1.6,1.7-1.953,1.462s-.047-1.293.68-2.343a4.31,4.31,0,0,1,1.953-1.462A4.312,4.312,0,0,1,3177.4,176.792Z" transform="translate(-3165.565 -174.449)" fill="#fff"/>
        <path id="Path_4165" data-name="Path 4165" d="M3178.629,215.324c-1.275.083-2.286.5-2.258.923s1.084.705,2.359.622a4.314,4.314,0,0,0,2.258-.924A4.313,4.313,0,0,0,3178.629,215.324Z" transform="translate(-3166.56 -212.574)" fill="#fff"/>
        <path id="Path_4166" data-name="Path 4166" d="M3343.135,708.827c-1.213-.4-2.305-.4-2.44.008s.74,1.061,1.953,1.462a1.286,1.286,0,1,0,.487-1.471Z" transform="translate(-3319.841 -672.676)" fill="#fff"/>
        <path id="Path_4167" data-name="Path 4167" d="M3342.89,679.4c-1.068.7-2.125.979-2.359.621s.441-1.216,1.51-1.917a1.286,1.286,0,1,1,.85,1.3Z" transform="translate(-3319.656 -643.709)" fill="#fff"/>
        <path id="Path_4168" data-name="Path 4168" d="M3402.217,694.725c-1.272-.118-2.336.131-2.375.557s.959.867,2.232.985a4.31,4.31,0,0,0,2.375-.557A4.312,4.312,0,0,0,3402.217,694.725Z" transform="translate(-3375.028 -659.772)" fill="#fff"/>
        <path id="Path_4169" data-name="Path 4169" d="M3401.473,657.933c-.883.923-1.85,1.432-2.159,1.136s.156-1.284,1.04-2.207a1.286,1.286,0,1,1,1.119,1.071Z" transform="translate(-3374.448 -623.418)" fill="#fff"/>
        <path id="Path_4170" data-name="Path 4170" d="M3457.3,664.287c-1.266.171-2.246.653-2.189,1.077s1.13.629,2.4.458a4.312,4.312,0,0,0,2.189-1.077A4.314,4.314,0,0,0,3457.3,664.287Z" transform="translate(-3426.584 -631.377)" fill="#fff"/>
        <path id="Path_4171" data-name="Path 4171" d="M3455.8,625.747c-.652,1.1-1.48,1.811-1.848,1.593s-.136-1.286.517-2.384a1.286,1.286,0,1,1,1.331.792Z" transform="translate(-3425.342 -593.228)" fill="#fff"/>
        <path id="Path_4172" data-name="Path 4172" d="M3505.555,620.061c-1.2.451-2.042,1.142-1.891,1.542s1.243.359,2.438-.093a4.31,4.31,0,0,0,1.891-1.542A4.314,4.314,0,0,0,3505.555,620.061Z" transform="translate(-3471.866 -589.934)" fill="#fff"/>
        <path id="Path_4173" data-name="Path 4173" d="M3502.59,584.526c-.39,1.217-1.035,2.1-1.442,1.968s-.422-1.222-.033-2.44a1.286,1.286,0,1,1,1.476.472Z" transform="translate(-3469.24 -554.722)" fill="#fff"/>
        <path id="Path_4174" data-name="Path 4174" d="M3544.481,563.947c-1.063.709-1.732,1.572-1.5,1.928s1.292.07,2.354-.639a4.312,4.312,0,0,0,1.5-1.928A4.315,4.315,0,0,0,3544.481,563.947Z" transform="translate(-3508.52 -537.202)" fill="#fff"/>
        <path id="Path_4175" data-name="Path 4175" d="M3538.143,536.383c-.105,1.273-.536,2.277-.962,2.242s-.687-1.1-.581-2.37a1.286,1.286,0,1,1,1.543.128Z" transform="translate(-3502.585 -509.876)" fill="#fff"/>
        <path id="Path_4176" data-name="Path 4176" d="M3572,500.139c-.876.93-1.334,1.921-1.023,2.215s1.274-.222,2.15-1.152a1.286,1.286,0,1,0-1.127-1.063Z" transform="translate(-3534.588 -477.201)" fill="#fff"/>
        <path id="Path_4177" data-name="Path 4177" d="M3559.156,483.782c.184,1.264-.01,2.339-.434,2.4s-.915-.914-1.1-2.178a1.286,1.286,0,1,1,1.533-.223Z" transform="translate(-3522.188 -460.985)" fill="#fff"/>
        <path id="Path_4178" data-name="Path 4178" d="M3586.517,433.708c-.645,1.1-.869,2.172-.5,2.388s1.191-.5,1.836-1.606a1.286,1.286,0,1,0-1.337-.782Z" transform="translate(-3548.541 -414.806)" fill="#fff"/>
        <path id="Path_4179" data-name="Path 4179" d="M3565.562,429.424c.463,1.19.516,2.282.117,2.437s-1.1-.684-1.561-1.875a1.286,1.286,0,1,1,1.444-.562Z" transform="translate(-3528.053 -410.559)" fill="#fff"/>
        <path id="Path_4180" data-name="Path 4180" d="M3586.77,368.086c-.38,1.22-.357,2.312.051,2.439s1.048-.758,1.428-1.978a1.286,1.286,0,1,0-1.479-.461Z" transform="translate(-3549.156 -353.242)" fill="#fff"/>
        <path id="Path_4181" data-name="Path 4181" d="M3556.629,376.093c.719,1.056,1.016,2.107.663,2.348s-1.223-.42-1.943-1.476a4.316,4.316,0,0,1-.662-2.348A4.312,4.312,0,0,1,3556.629,376.093Z" transform="translate(-3519.478 -361.18)" fill="#fff"/>
        <path id="Path_4182" data-name="Path 4182" d="M3571.408,306.635c-.1,1.274.172,2.333.6,2.365s.85-.975.946-2.249a1.286,1.286,0,1,0-1.544-.117Z" transform="translate(-3535.061 -295.663)" fill="#fff"/>
        <path id="Path_4183" data-name="Path 4183" d="M3534.276,326.523c.938.867,1.463,1.825,1.174,2.139s-1.287-.134-2.225-1a4.316,4.316,0,0,1-1.173-2.139A4.314,4.314,0,0,1,3534.276,326.523Z" transform="translate(-3498.364 -315.381)" fill="#fff"/>
        <path id="Path_4184" data-name="Path 4184" d="M3539.8,252.5c.193,1.263.692,2.235,1.115,2.17s.61-1.141.417-2.4a1.286,1.286,0,1,0-1.532.234Z" transform="translate(-3505.561 -245.023)" fill="#fff"/>
        <path id="Path_4185" data-name="Path 4185" d="M3501.33,283.011c1.109.634,1.836,1.449,1.625,1.82s-1.284.159-2.393-.475a4.313,4.313,0,0,1-1.625-1.82A4.314,4.314,0,0,1,3501.33,283.011Z" transform="translate(-3467.473 -275.263)" fill="#fff"/>
        <path id="Path_4186" data-name="Path 4186" d="M3494.594,208.472c.473,1.187,1.178,2.022,1.575,1.864s.336-1.249-.136-2.436a4.31,4.31,0,0,0-1.574-1.864A4.315,4.315,0,0,0,3494.594,208.472Z" transform="translate(-3463.187 -203.916)" fill="#fff"/>
        <path id="Path_4187" data-name="Path 4187" d="M3459.494,245.432c1.223.368,2.115,1,1.992,1.408s-1.215.444-2.439.076a4.313,4.313,0,0,1-1.992-1.408A4.313,4.313,0,0,1,3459.494,245.432Z" transform="translate(-3428.403 -240.53)" fill="#fff"/>
        <path id="Path_4188" data-name="Path 4188" d="M3437.677,176.792c.727,1.051,1.6,1.7,1.953,1.462s.047-1.293-.68-2.343a4.311,4.311,0,0,0-1.953-1.462A4.31,4.31,0,0,0,3437.677,176.792Z" transform="translate(-3409.691 -174.449)" fill="#fff"/>
        <path id="Path_4189" data-name="Path 4189" d="M3410.916,215.324c1.275.083,2.286.5,2.258.923s-1.083.705-2.359.622a4.315,4.315,0,0,1-2.258-.924A4.312,4.312,0,0,1,3410.916,215.324Z" transform="translate(-3383.16 -212.574)" fill="#fff"/>
        <path id="Path_4190" data-name="Path 4190" d="M3224.1,177.672c-1.177.5-2.266.582-2.433.189s.652-1.117,1.829-1.615a4.312,4.312,0,0,1,2.432-.189A4.314,4.314,0,0,1,3224.1,177.672Z" transform="translate(-3208.797 -175.861)" fill="#fff"/>
        <path id="Path_4191" data-name="Path 4191" d="M3369.35,177.672c1.177.5,2.266.582,2.432.189s-.652-1.117-1.828-1.615a4.314,4.314,0,0,0-2.433-.189A4.316,4.316,0,0,0,3369.35,177.672Z" transform="translate(-3344.879 -175.861)" fill="#fff"/>
      </g>
    </g>
    <g id="Group_2790" data-name="Group 2790" transform="translate(670.472 269.32)">
      <path id="Path_4105" data-name="Path 4105" d="M787.925,689.591,785.105,683l-2.82,6.591-10.194.039,1.085,1.057h9.838l2.091-4.888,2.091,4.888h10.71l1.085-1.057Z" transform="translate(-772.091 -683)" fill="#fff"/>
      <path id="Path_4106" data-name="Path 4106" d="M1338.14,1006.641h-1.578l-2.367,2.307.011.037h5.809l1.285-1.075h-4.463Z" transform="translate(-1318.377 -997.532)" fill="#fff"/>
      <path id="Path_4107" data-name="Path 4107" d="M1036.852,1132.323l.832,2.771-4.007-2.106-4.006,2.106.833-2.771h-1.15l-1.493,4.967,5.816-3.057,5.815,3.057-1.491-4.966Z" transform="translate(-1020.663 -1119.677)" fill="#fff"/>
      <path id="Path_4108" data-name="Path 4108" d="M889.917,1008.985h.011l-.009-.006.009-.03-2.368-2.308h-1.578l1.3,1.269h-4.45l1.285,1.075h5.8Z" transform="translate(-879.718 -997.532)" fill="#fff"/>
    </g>
  </g>
</svg>
