<svg xmlns="http://www.w3.org/2000/svg" xmlns:xlink="http://www.w3.org/1999/xlink" width="60" height="60" viewBox="0 0 60 60">
  <defs>
    <linearGradient id="linear-gradient" x1="0.5" x2="0.5" y2="1" gradientUnits="objectBoundingBox">
      <stop offset="0" stop-color="#fbe62e"/>
      <stop offset="1" stop-color="#af1a3d"/>
    </linearGradient>
    <filter id="Ellipse_48" x="0" y="0" width="60" height="60" filterUnits="userSpaceOnUse">
      <feOffset dy="3" input="SourceAlpha"/>
      <feGaussianBlur stdDeviation="3" result="blur"/>
      <feFlood flood-opacity="0.161"/>
      <feComposite operator="in" in2="blur"/>
      <feComposite in="SourceGraphic"/>
    </filter>
  </defs>
  <g transform="matrix(1, 0, 0, 1, 0, 0)" filter="url(#Ellipse_48)">
    <circle id="Ellipse_48-2" data-name="Ellipse 48" cx="21" cy="21" r="21" transform="translate(9 6)" fill="url(#linear-gradient)"/>
     <path id="Path_4714-2" data-name="Path 4714" d="M1246.6,269.758a14.323,14.323,0,0,0,22.035-12.719,10.2,10.2,0,0,0,2.513-2.607,10.054,10.054,0,0,1-2.893.793,5.041,5.041,0,0,0,2.214-2.786,10.089,10.089,0,0,1-3.2,1.223,5.039,5.039,0,0,0-8.582,4.594,14.294,14.294,0,0,1-10.38-5.263,5.043,5.043,0,0,0,1.559,6.725,5.012,5.012,0,0,1-2.282-.631,5.042,5.042,0,0,0,4.04,5,5.037,5.037,0,0,1-2.273.086,5.036,5.036,0,0,0,4.7,3.5A10.118,10.118,0,0,1,1246.6,269.758Z" transform="translate(-1227.6 -234.07)" fill="#fff"/>
  </g>
</svg>

