<svg xmlns="http://www.w3.org/2000/svg" xmlns:xlink="http://www.w3.org/1999/xlink" width="167.362" height="208.132" viewBox="0 0 167.362 208.132">
  <defs>
    <linearGradient id="svg_dao_0" x1="0.5" x2="0.5" y2="1" gradientUnits="objectBoundingBox">
      <stop offset="0" stop-color="#fbe62e"/>
      <stop offset="1" stop-color="#af1a3d"/>
    </linearGradient>
  </defs>
  <g transform="translate(-144.598 -94.689)">
    <path d="M310.019,344.985c0,23.386-37.031,42.345-82.71,42.345s-82.71-18.959-82.71-42.345,37.031-42.344,82.71-42.344S310.019,321.6,310.019,344.985Z" transform="translate(0 -84.509)" opacity="0.753" fill="url(#svg_dao_0)"/>
    <g transform="translate(170.61 194.696)">
      <g transform="translate(0)">
        <g>
          <path d="M300.12,263.161l-3.045,80.465H191.461l-3.043-80.465Z" transform="translate(-188.418 -263.161)" fill="#5e8eba"/>
        </g>
      </g>
    </g>
    <g transform="translate(166.554 144.87)">
      <g transform="translate(0)">
        <g>
          <path d="M181.586,222.677l7.809-43.453h104.2l7.807,43.453Z" transform="translate(-181.586 -179.224)" fill="#a4e3ff"/>
        </g>
      </g>
    </g>
    <g transform="translate(200.323 165.15)">
      <g>
        <g>
          <path d="M238.473,216.281l.519-2.893h52.931l.518,2.893Z" transform="translate(-238.473 -213.388)" fill="#0c2b53"/>
        </g>
      </g>
    </g>
    <g transform="translate(170.61 194.696)">
      <g transform="translate(0)">
        <path d="M188.861,274.859H299.677l.443-11.7h-111.7Z" transform="translate(-188.418 -263.161)" fill="#355673"/>
      </g>
    </g>
    <g transform="translate(166.554 188.323)">
      <g transform="translate(0)">
        <g>
          <path d="M301.4,252.425l-.617,14.85H182.2l-.617-14.85Z" transform="translate(-181.586 -252.425)" fill="#5e8eba"/>
        </g>
      </g>
    </g>
    <g transform="translate(198.652 94.689)">
      <g>
        <path d="M272.117,168.043l52.471-36.312L298.954,94.689l-63.3,43.8,20.451,29.551Z" transform="translate(-235.658 -94.689)" fill="#fcfcfc"/>
      </g>
    </g>
    <g transform="translate(219.685 116.056)">
      <g transform="translate(0 19.639)">
        <path d="M284.791,177l-2.522,1.745-11.179-7.706,2.832-1.96,7.542,5.73.059-.041L278.8,165.7l2.787-1.929Z" transform="translate(-271.09 -163.768)" fill="#0c2b53"/>
      </g>
      <g transform="translate(13 13.886)">
        <path d="M303.782,166.487a6.561,6.561,0,0,1-9.516-1.616c-2.317-3.348-1.357-7.13,1.9-9.386s7.151-1.831,9.468,1.517A6.565,6.565,0,0,1,303.782,166.487Zm-6.042-8.73a3.921,3.921,0,0,0,4.449,6.43,3.919,3.919,0,0,0-4.449-6.43Z" transform="translate(-292.99 -154.076)" fill="#0c2b53"/>
      </g>
      <g transform="translate(22.288 5.655)">
        <path d="M315.6,144.4l5.735,8.289-2.522,1.745-5.736-8.289-2.95,2.041-1.489-2.153,8.42-5.827,1.49,2.153Z" transform="translate(-308.637 -140.21)" fill="#0c2b53"/>
      </g>
      <g transform="translate(31.86)">
        <path d="M331.987,145.983l-7.225-10.442,7.02-4.858,1.479,2.138L328.674,136l1.358,1.962,4.336-3,1.4,2.02-4.335,3,1.5,2.167,4.852-3.357,1.49,2.154Z" transform="translate(-324.762 -130.684)" fill="#0c2b53"/>
      </g>
    </g>
    <g transform="translate(280.057 102.014)">
      <rect width="17.711" height="2.374" transform="translate(10.741 18.464) rotate(-34.606)" fill="#0977b1"/>
      <rect width="2.996" height="2.374" transform="matrix(0.823, -0.568, 0.568, 0.823, 28.089, 6.419)" fill="#0977b1"/>
      <rect width="11.13" height="2.375" transform="matrix(0.823, -0.568, 0.568, 0.823, 5.37, 11.038)" fill="#0977b1"/>
      <rect width="6.363" height="2.375" transform="translate(0 3.613) rotate(-34.598)" fill="#0977b1"/>
    </g>
    <text transform="translate(226 232.513)" fill="#fff" font-size="14" font-family="Montserrat-Bold, Montserrat" font-weight="700" letter-spacing="0.025em"><tspan x="-38.822" y="0">Important</tspan><tspan x="-32.914" y="18">Decision</tspan></text>
  </g>
</svg>
