<svg xmlns="http://www.w3.org/2000/svg" xmlns:xlink="http://www.w3.org/1999/xlink" width="262.785" height="227.578" viewBox="0 0 262.785 227.578">
  <defs>
    <linearGradient id="svg_topdown_0" x1="0.5" y1="-1.28" x2="0.5" y2="3.176" gradientUnits="objectBoundingBox">
      <stop offset="0" stop-color="#fbe62e"/>
      <stop offset="1" stop-color="#af1a3d"/>
    </linearGradient>
    <linearGradient id="svg_topdown_1" x1="-0.101" y1="-0.687" x2="-0.122" y2="1.743" xlink:href="#svg_topdown_0"/>
    <linearGradient id="svg_topdown_2" x1="1.381" y1="-0.484" x2="1.393" y2="1.229" xlink:href="#svg_topdown_0"/>
  </defs>
  <g transform="translate(-93 -134.13)">
    <g transform="translate(93 134.13)">
      <path d="M273.344,285.018l-29.586,51.244H377.5l-29.586-51.244Z" transform="translate(-179.235 -220.439)" fill="url(#svg_topdown_0)"/>
      <path d="M388.335,194.171,353.67,134.13l-34.665,60.041Z" transform="translate(-222.278 -134.13)" fill="#af1a3d"/>
      <path d="M122.7,545.683,93,597.121H355.785l-29.7-51.439Z" transform="translate(-93 -369.543)" fill="#7e827a"/>
      <path d="M366.661,466.594,337.075,415.35H198.1l-29.586,51.244Z" transform="translate(-136.193 -294.991)" fill="#f2ebbf"/>
      <path d="M281.34,545.683H122.7L93,597.121H297.97Z" transform="translate(-93 -369.543)" fill="#231f20" opacity="0.05"/>
      <path d="M328.044,545.683H312.418l-3.189,16.257h-6.562l13.981,18.332,16.834-18.618h-7.133Z" transform="translate(-212.932 -369.543)" fill="#231f20" opacity="0.12"/>
      <path d="M328.691,415.35H317.856l-13.627,69.47h-6.562l13.981,18.332,16.834-18.618h-7.133Z" transform="translate(-210.072 -294.991)" fill="#f2ebbf"/>
      <path d="M249.374,466.594h73.692L306.5,415.35H198.1l-29.586,51.244h65.415l-3.575,18.226h-6.562l13.981,18.332L254.6,484.535H247.47Z" transform="translate(-136.193 -294.991)" fill="#231f20" opacity="0.05"/>
      <path d="M408.49,286.3l-3.856-1.284,2.786,79.6H401l14.552,15.408,10.985-15.408h-5.849Z" transform="translate(-269.179 -220.439)" fill="#231f20" opacity="0.12"/>
      <path d="M413.49,285.018h-6l4.926,78.314H406l14.552,15.408,10.985-15.408h-5.849Z" transform="translate(-272.039 -220.439)" fill="url(#svg_topdown_1)"/>
      <path d="M233.528,415.35h-6.093l-30.228,64.262H191l10.058,14.766,18.514-14.766h-7.6Z" transform="translate(-149.058 -294.991)" fill="#231f20" opacity="0.12"/>
      <path d="M251.27,285.018h-5.2L190.206,403.777H184l10.058,14.766,18.514-14.766h-7.6Z" transform="translate(-145.053 -220.439)" fill="url(#svg_topdown_2)"/>
      <path d="M313.892,336.261l-16.567-51.244H239.162l-29.586,51.244h12.389l-31.758,67.515H184l10.058,14.766,18.514-14.766h-7.6l26.321-67.515Z" transform="translate(-145.053 -220.439)" fill="#231f20" opacity="0.05"/>
      <path d="M336.122,285.018,315.568,353.06h-5.9L319.8,364.616l11.7-11.556h-5.849Z" transform="translate(-216.935 -220.439)" fill="#231f20" opacity="0.12"/>
      <path d="M345.468,134.13l-34.9,131.337h-5.9l10.129,11.556,11.7-11.556h-5.849Z" transform="translate(-214.075 -134.13)" fill="#af1a3d"/>
      <path d="M400,134.13l29.388,72.988h5.917l-8.2,10.836-12.412-10.836h6.42Z" transform="translate(-268.607 -134.13)" fill="#231f20" opacity="0.12"/>
      <path d="M400,134.13l31.529,71.7h5.917l-8.2,10.836-12.412-10.836h6.42Z" transform="translate(-268.607 -134.13)" fill="#af1a3d"/>
      <path d="M513.52,417.062l-6.292-1.712L533.2,488.387h-6.49l20.543,15.194,6.848-15.622h-5.35Z" transform="translate(-329.943 -294.991)" fill="#231f20" opacity="0.12"/>
      <path d="M516.516,415.35h-9.288L536.2,486.674h-6.49l20.544,15.194,6.848-15.622h-5.35Z" transform="translate(-329.943 -294.991)" fill="#f2ebbf"/>
      <path d="M364.879,194.171,345.468,134.13,310.8,194.171h18.71l-18.945,71.3h-5.9l10.129,11.556,11.7-11.556h-5.849l13.475-71.3Z" transform="translate(-199.077 -131.318)" fill="#af1a3d" opacity="0.054"/>
      <path d="M421.471,404.749H410.717l1.7,27.071H406l14.552,15.408,10.985-15.408h-5.849Z" transform="translate(-272.039 -288.927)" fill="#231f20" opacity="0.05"/>
    </g>
  </g>
</svg>
